<svg id="Layer_1" data-name="Layer 1" xmlns="http://www.w3.org/2000/svg" viewBox="0 0 933.29 622.16"><defs><style>.cls-1,.cls-2{fill:#f2f2f2;}.cls-1,.cls-2,.cls-3{stroke:#fff;stroke-miterlimit:10;stroke-width:0.1px;}.cls-2,.cls-3{fill-rule:evenodd;}.cls-3{fill:#f15a24;}</style></defs><g id="Asia"><polygon class="cls-1" points="164.19 198.01 162.54 196.44 160.18 196.37 156.73 194.48 155.63 192.05 156.66 190.79 156.33 188.98 153.51 186.39 153.74 183.09 152.49 181.45 149.5 181.13 147.39 179.49 143.07 179.49 141.89 179.17 135.58 180.85 135.84 180.97 137.25 182.85 139.45 184.27 139.3 191.18 141.5 192.44 145.58 192.28 147.79 194.51 150.06 194.08 152.41 195.34 153.04 194.95 154.3 194.95 155.55 197.39 157.51 198.09 161.05 203.43 163.02 202.97 163.09 201.31 163.56 200.61 162.62 198.72 164.19 198.01"/><path class="cls-1" d="M6738.38,7092.06h0a5.74,5.74,0,0,1,1.83-.33A5.74,5.74,0,0,0,6738.38,7092.06Z" transform="translate(-6738.36 -6905.13)"/><path class="cls-1" d="M6757.67,7073.48h0c0,.09,0,.2-.08.31C6757.63,7073.68,6757.64,7073.57,6757.67,7073.48Z" transform="translate(-6738.36 -6905.13)"/><path class="cls-1" d="M6739.15,7101.54c.49.48,1,.38,1.49-.17a.91.91,0,0,0-.54-1.44,1,1,0,0,0-.82.14A.87.87,0,0,0,6739.15,7101.54Z" transform="translate(-6738.36 -6905.13)"/><path class="cls-1" d="M6887.39,7119.4c-.47,0-1.88-.31-1.88-1.25a19.24,19.24,0,0,0-.48-3l.95-1.88-2-1.1-.16-6.44-1.73-2.05,1.73-.78,2.67-3-2.51-2.52-4.09.16-2.19-1.25.15-6.91-2.2-1.42-1.41-1.89-2-.94-3-2-1.57-.33-.78.8-3.3-.16-1.42-1.1-2.06-1.44a5.07,5.07,0,0,1-2.21,4.1c-1.05.73-2.1,1.44-3.19,2.09-2,1.17-4,1.85-6.35,1-2.85-1-5.63-.51-8.41.4a8.67,8.67,0,0,1-5.6-.17c-3.63-1.19-7.28-2.27-10.86-3.52a9.63,9.63,0,0,1-2.33-1.61c-.5-.37-.94-1.08-1.45-1.14-3.47-.34-6.65-1.92-10-2.47-6.37-1.06-12.64.28-18.68,2.43a14.08,14.08,0,0,0-6,4.57,3.8,3.8,0,0,1-4.25,1.37c-3.45-1.12-6.95-.38-10.43-.47-4.8-.13-8.54-2.05-10.57-6.66-.65-1.44-1.5-2.82-2-4.3a37.87,37.87,0,0,0,1.77,3.77l-1.88-.48-1.25,1-2.2-1.65-2.12.16-.94.77-1,.33-1.33,1.41-.11,0-.26,2.08,1.57.63v2l-2.2,1,.63,1.89-1.05,1.77-1.88.52-1.53.63a5.22,5.22,0,0,1,3.23,4.66c.11,3.81.13,7.61-1,11.32-.23.76.81,1.88,1.7,1.89s1.89-.07,2.84-.11a2.75,2.75,0,0,1,.95,0c.27.11.66.38.69.61a3.23,3.23,0,0,1-.14,1.79c-1.08,1.85-3.33,1.6-4.92,2.56a1.64,1.64,0,0,0-.68.62,1.19,1.19,0,0,0,.58,1.64c1.12.59,2.26,1.15,3.38,1.74a12.07,12.07,0,0,1,2.49,1.39c1.09,1-1.4,2.16-.2,3,1.61,1.09,3.27,2.13,4.07,3.89s2.55,2.79,3.91,4.1a3.44,3.44,0,0,0,3.51.82,5.85,5.85,0,0,1,6.7,2.4,7.14,7.14,0,0,0,2.29,1.66,3.21,3.21,0,0,0,1.8.53c3.12-.44,6.47-.51,8.55-3.42,1.6-2.21,3.68-2.19,6-1.63a12.35,12.35,0,0,1,5.77,3.22c2.57,2.56,5.62,2.67,8.88,2.05a14.65,14.65,0,0,0,8.86-5.13,3,3,0,0,1,3.47-.91c2.38.94,4.87.64,7.33.86,0-.06,0-.14.05-.22l.22-.29-.06.52h-.21a15.37,15.37,0,0,0-.76,5.3H6826l3-.79v-1.73l1.09-.31v-4.4l3.92.63,10.21-2.36,2.83,1.26,4.88.47,3.75-2.36,5.35-1.25,6.12.31,5.34-.78,2.2-1.41,5.34-1.1,2.83,1.1,2.82-.79.79,2.52,2.51-.32.32-1.57S6887.86,7119.4,6887.39,7119.4Zm-121.17-24.58a5.21,5.21,0,0,1-2.23,1.48,4.17,4.17,0,0,1-1.86,0c-.63,0-1.25-.15-1.64-.2-1.18,0-2.12,0-3.06,0-1.18,0-2.09-.73-1.8-1.47a4.72,4.72,0,0,1,1.48-2.23c2.57-1.55,5.45-1.16,8.27-.92C6767.2,7091.63,6767.61,7093,6766.22,7094.82Z" transform="translate(-6738.36 -6905.13)"/><path class="cls-1" d="M6743.29,7097.15l.76.17-.51-.43Z" transform="translate(-6738.36 -6905.13)"/><path class="cls-1" d="M6761.56,7137.68c.08.25.42.41.65.61.3-.1.69-.09.88-.28a13.38,13.38,0,0,0,1.05-1.47c-.43-.29-.89-.84-1.28-.8A1.46,1.46,0,0,0,6761.56,7137.68Z" transform="translate(-6738.36 -6905.13)"/><path class="cls-1" d="M6740.54,7091.73a12.85,12.85,0,0,1,1.84.13A12.85,12.85,0,0,0,6740.54,7091.73Z" transform="translate(-6738.36 -6905.13)"/><path class="cls-1" d="M6803.2,7150.58a26,26,0,0,0,5.28-2.12c2.55-1.21,3.19-3.78,4.09-6.09-.24-.25-.48-.7-.67-.68-2.5.31-5,.71-7.5,1.06a15.55,15.55,0,0,0-6,2.66,2.5,2.5,0,0,0-.3,3.4A5,5,0,0,0,6803.2,7150.58Z" transform="translate(-6738.36 -6905.13)"/><path class="cls-1" d="M6867.13,7126.62l-6.12-.31-5.35,1.25-3.75,2.36-4.88-.47-2.83-1.26-10.21,2.36-3.92-.63v4.4l-1.09.31v1.73l-3,.79h-2.84a30.37,30.37,0,0,0,.53,4.83,20.47,20.47,0,0,1-.13,7.45l4.69.39.84,1.68,1,.52v1.88l.62,1.36-.62.74H6829l-1.48.63-1.68,4.28,1.16,1.48.31,2.93-.31,1.35,2.62.84,1.77,1.26,1.89.74,15.6-9.64,14.24-10.26,2-2.82v-2l-.31-1.26,1-2.93.31-1.88-1.77-3.87V7133l1.46-3,3.25-.63,1.57-1.57.84.11,1-2Z" transform="translate(-6738.36 -6905.13)"/><path class="cls-1" d="M6829,7156h1.14l.62-.74-.62-1.36V7152l-1-.52-.82-1.63-.12-.05-4.5-.39a15.77,15.77,0,0,1-.41,2c-.68,2.45-1.49,4.85-2.35,7.24-.44,1.22-.94,2.4-1.43,3.59l4.26.18,1.1-1.58,1,.05,1.68-4.28Z" transform="translate(-6738.36 -6905.13)"/><path class="cls-1" d="M6815.69,7180.41l.79,3.07,2.13,3.13,2,4-.7,2.12,1.1,2.43.94-.94-.08-1.41.64-1-.09-1.39.78-2.92-.15-1.57.63-.39-.16-2,.47-2.58-.86-2,.24-1.25-.63-.08-1.34.62-.71-.78.24-5.81-.24-.87.16-2.2a17.43,17.43,0,0,1,2,.09c.39.07-.07.94-.07.94l.94.23.94-.78.16-.94-.47-1.26-.4-1.65.55-.94,1-3.34-.69,0-1.1,1.58-4.26-.18a29.66,29.66,0,0,0-2,6.29,18.15,18.15,0,0,1-4.33,8.41c-.19.22-.38.44-.58.65l1.63.76Z" transform="translate(-6738.36 -6905.13)"/><path class="cls-1" d="M6823.71,7169.81l-.94-.23s.46-.87.07-.94a17.43,17.43,0,0,0-2-.09l-.16,2.2.24.87-.24,5.81.71.78,1.34-.62.63.08-.15.75.38-.13.08-3.37.78-.56v-3l.24-1-.08-1.41Zm3.27-7.42-1.16-1.48-1-.05.69,0-1,3.34-.55.94.4,1.65.47,1.26v0l.48,0,.62-.94,1.11-.65.28-1.18Z" transform="translate(-6738.36 -6905.13)"/><polygon class="cls-1" points="110.66 254.62 110.5 254.73 94.9 264.38 93.01 263.64 91.24 262.38 88.62 261.54 88.93 260.18 88.65 261.37 87.54 262.02 86.92 262.95 86.45 262.99 86.45 262.95 86.3 263.89 86.37 265.31 86.13 266.25 86.13 269.23 85.35 269.79 85.27 273.16 84.89 273.29 84.8 273.79 85.67 275.76 85.19 278.35 85.35 280.38 84.72 280.78 84.88 282.35 84.09 285.26 84.18 286.66 83.54 287.69 83.62 289.1 83.54 289.18 83.54 289.58 82.91 291.38 82.97 292.09 93.02 293.86 95.28 291.69 98.67 288.41 103.92 287.74 105.17 287.17 105.17 285.48 108.3 281.72 99.72 271.67 111.66 267.9 114.17 264.96 114.62 265.04 110.66 254.62"/><polygon class="cls-1" points="157.51 198.09 155.55 197.39 154.3 194.95 153.04 194.95 152.41 195.34 150.06 194.08 147.79 194.51 148.09 194.8 147.62 195.32 148.72 195.82 149.5 196.52 150.14 196.52 150.76 197.62 150.76 198.65 154.22 200.52 154.45 202.25 156.26 203.27 158.45 203.36 160.73 204.53 161 203.36 157.51 198.09"/><path class="cls-1" d="M6927.44,7091.18a4.52,4.52,0,0,0-1.54-1.11,11.66,11.66,0,0,1-6.91-6.22,18,18,0,0,0-4.84-6.43l-3,3.66-2.19,1-.55,1.41-3.84-.24-1-1.87-3.53-3-2.36-.48-.79,3.08,1.89,1,1.41,2-.47,2.52-2.83-1.42-3-.23-4.39-2.44-3,1-.18,1.51,1.59,1.24,3,.32,1.25,1.64-.23,3.31,2.82,2.59.32,1.8-1,1.26,1.1,2.43,3.45,1.89,2.36.07,1.64,1.58-1.57.7.95,1.89-.47.7-.07,1.55.93.65,1.34-.86,1.1-1.5,2.27-2,1.5-1.5a3.84,3.84,0,0,1,1.25-.55,5.07,5.07,0,0,0,1.5-.78h.86l1,1,1.34,1.82-.8.93.48.79,1.65.87-2,1.56,2.59,3.46,1.17.55,1.34.79,1.53-.42a11.41,11.41,0,0,1,.54-6.78,24,24,0,0,0,1.89-6.35c.32-3.21,2-5.19,4.53-6.81C6928,7092.46,6928,7091.73,6927.44,7091.18Z" transform="translate(-6738.36 -6905.13)"/><path class="cls-1" d="M7056.17,7117.36l-.31-4-.11-1.57-3-2.41h-1l-1.15-.62-4.19-.63-6.18-4.3-13.92-8-4.71-3-1.79-4.82-1.57-1-1.77-5.13-4.71-2.1-1.37.42L7000,7075l-.63-2.05-10.21-5.34-3-.16.78,1.74-.94.78-1.41-.94-2.35.94-1.11,1.72-2-.3-2.19,4.08.78,3.13,1.1.79-.63,2.36-3-1.26-8.17,1.42-4.86-5.66-5.65-3-5.34-1.42-3.46,1.89-5.71,4.08a9.57,9.57,0,0,0,1.81,3.62,11,11,0,0,1,2.27,9,9,9,0,0,0,.37,3.77c.57,1.86,1.59,3.49,3.88,3.59,1,0,1.94,0,2.56.89s.14,1.77-.19,2.63c-.12.29-.27.73-.14.9a10.71,10.71,0,0,0,1.88,2.13,7.27,7.27,0,0,1,3.23,6.54c-.22,3.88,1,7.41,2.24,10.94l2.56-1.23h4l1.67-3.78h1.25l3.35-2.93,3-.52,2.94.83.51-1.88,2.21-.52,1.25.72,1.57-.2,2.62,2.31,2.62.73,4.61,3h.94l1.67-.74,3.46,1.06h1.36l.42,2.09.42.94,2.72-.31,2.3.84,3,4.61h3.24L7016,7128l1.25,1.77-.31,1.37,1.16,4.4.93-.43,1.16.22,1.36,1.05,1.57.1.73-1.05,1.36-.1,2.09,1.25,1.26,1.79.94-.53,2.19-.73.95-1.26.94-2.41,3.35-2.3,1.79.31,1.36-2.09,1.46-.73.53-2.2.31-1.78,2-1.78-.21-1.26-.62-1v-.72l3.75-1.69,3.16-1.57,2.09-.41.41.83,2.42-.52Z" transform="translate(-6738.36 -6905.13)"/><path class="cls-1" d="M7092,7076.94l-4.92-3.13-1.78,3.87-7.54-3.87,3.35-5.77-.84-2.2-3.24,2.63-3.45,4-3.26,6-3.55,2.83-6.5-2-2-.31.73,1.35-2.4.52-.54,1.26.95,1.37-1.36.62-2.82-1.57-1.68-5.33-2.2-5.24-5.44-1-.22-11.1-3,.93-1.57-4.6-4.29-3.15-12.78.22-12.25,1.36-11-6-14.24-8.63-19.16,3.45,6.56,37.69,3.64-.63,3,1.26.63-2.36-1.1-.79-.78-3.13,2.19-4.08,2,.3,1.11-1.72,2.35-.94,1.41.94.94-.78-.78-1.74,3,.16,10.21,5.34.63,2.05,10.31,5.23,1.37-.42,4.71,2.1,1.77,5.13,1.57,1,1.79,4.82,4.71,3,13.92,8,6.18,4.3,4.19.63,1.15.62h1l3,2.41.11,1.57.26,3.33,2.35-.19,1.89.95,1.15,1.46,2.2-1.15,2,.84.42-5.14,2.31-4.7-.22-2-2.3-2.82.21-3.35-3.67.52-2-4.92,5.13-1.15c.42-.11,4.4-2.94,4.4-2.94l-.42-2.3,5.76-2.09-2.3-2.3-.1-1.78,4.39-2.84,4.19-1.87,2.51,2.82,3.46-.95,2.61.22,2.21-2.2Z" transform="translate(-6738.36 -6905.13)"/><path class="cls-2" d="M7185.27,6984.18l-2.71-2.52-.42-2.72-3.35,2.72-4.19,1.05-3.15,1.05-2.92-3.35-1.27-2.73-2.29-1.87-2.95-.64-1.66-2.72-2.3-3.14-5.25-1.25-4,.63.42,1.67-2.1.83-2.31.84-2.5-1-2.3.83-2.31-.83-2.1-.43v-2.09l-1.88-1.46-1.46,1.26v1.88l-2.94,2.1-20.1-24.5-14-11.53,2.09-1.67-.2-1.68-3.77.22-2.72,1.88-1.68,2.51-1.47,2.1-2.93,1.46-2.72,1,.2,1.48-1.05.83-4.38-1.25-2.52,1.46-2.09-.21.41-2.51,1.26-1.89-.62-1-2.52.41-2.93-1.25-1.68.84,1.05,1.26-1.25.83-1.26-1.05-1.05-3.14-1.89-2.09-.41,1.05v1.46h-1l-.42-1.05-1.05.21v1.68l-.85.41-1.45-.83-1.68.42-1-1.26.63-1,.21-4-2.73-2.93-2.09-3.78-2.72,1.26-4-1.46-3.56-.21-3.77.41-1.26,2.1-2.3.63.63,2.31-2.93-.22-1.26,1.26-4.18,1.67-5.87,3.15-1.68-1.05-1.46,1.68-2.1.83-.63,2.73-1.25-.85-2.3.85-2.1.42-2.3,2.08h-1.48l-2.08.63-6.08,1.47v1.68l-2.29-1.68-1.68,1.68-1.05,1.26-1-.63-1.47.2-1.88-1-1.46,1-1.68.63.63,2.73,2.31,1.88-1.48-.21-.41,1.46,4.19.85,1.88-.43,2.52,1.88V6958l-2.73-.41-2.72.41-3.35,4.61,1.05,1.47.42,1.67L6984,6967l-.84,1.68-1.26.62.84,2.72,4,.85,1.89,2.08,2.73.85.63,7.32-4.4.63-2.3-.63h-1.68l-.21,1.05-.21,2.3-2.1.21-2.93-1.26-4.4-.21-2.3-2.51,1.46-1.67-3.13-.84-2.72.42-1.26.21-.21,1.88h-2.09l-1.68-2.92-2.1.62-.83.83-1.67-.41-2.52,1.46-.63,3.14-1.89,1.47-1.46-1.47-2.1-.83-2.29-2.1-1.26,1.48-1.26,3.76-.63-2.52-1.88-1.46-3.57-2.72-3.55-1.88-2.51-2.31-2.72,1.68-1.89-1.05-1.89-2.52-3.56,1.89-2.92,2.09-2.51.22,1.88-2.52-5-1.89v3.35H6911l-1.05,2.94-1.25-.42-3.15,3.36.84,1.24-.42,2.93h-4.81L6903,6994l-.21,3.36-4.61-.22-1.05-3.14-3.14-3.35-2.3,1v2.73l-2.94,3.56.63,5.66-1.25,6.9,2.72,1.26,1.26,3.35,2.51,2.1.63-1.05a10,10,0,0,0,3.14.84c1.26,0,3.35,1.46,3.35,1.46l5.66,8-3.14-.21.41,1.88,2.51,1.05,1.89-.22,3.44,3c3.52-2.12,7.08-4.2,10.68-6.17a3.53,3.53,0,0,1,2.69-.44,15.34,15.34,0,0,0,9.26,1c1.64-.25,2.92.91,3.67,2.51a8.17,8.17,0,0,1,1,4.57c-.24,1.89-.62,3.76-.81,5.64a1.75,1.75,0,0,1-1.73,1.8c-1.57.17-3.18.12-4.76.26-4.12.36-5.14,1.75-4.74,6.38.19,2.24.19,2.25-1.54,2.78-.3.1-.64.09-.94.17-2.76.85-3.14,1.46-1.57,2.88a24.09,24.09,0,0,1,5.37,6.66,16.6,16.6,0,0,0,10.71,8.64,2.61,2.61,0,0,1,2.08,2.75,17.44,17.44,0,0,1-.18,1.9,12.29,12.29,0,0,0,.28,4.47l5.71-4.08,3.46-1.89,5.34,1.42,5.65,3,4.86,5.66,8.17-1.42-3.64.63-6.56-37.69,19.16-3.45.66.4c2-3.71,6.26-6.37,10.09-6a3.19,3.19,0,0,1,2.95,1.91c.6,1.43,1.18,2.87,1.77,4.31-.79,2.54-1.45,5-2.31,7.31h0l1.08.65,11,6,12.25-1.36,12.78-.22,4.29,3.15,1.57,4.6,3-.93.22,11.1,5.44,1,2.2,5.24,1.68,5.33,2.82,1.57,1.36-.62-.95-1.37.54-1.26,2.4-.52-.73-1.35,2,.31,6.5,2,3.55-2.83,3.26-6,3.45-4,3.24-2.63.22.57.73-1.2,1.68-2.72,6.28.42,11.73-.42-.42-5.23,6.07-.21,9.43,2.51,3.76-1.88,6.91-.42,5.66-.21,7.53,1.47,2.93-1.26,2.94,5,4.19.63,1-.83,1-2.52,1.88-2.09-1.26-1.25.21-1.89.21-2.93-2.51-3.56-2.09-6.91v-3.15l-5-1.26,2.09-2.3,3.36-.2,8.37-2.3.63.83,3.35-.63.42-3.35-2.09-2.93.62-8.58,2.1-6.5,4.19,1,4.19.21,3.77.42,2.09.21,1-1.89,2.31-1.26,1.68-2.93-2.09-4.39-.43-4.82,1.47-2.3,3.14-1.68v-1.88l1.67-2.72,3.56-2.93Zm-130.83,98.27-.21-.7.58.06Zm46.67-58.11a16.89,16.89,0,0,0-3.83,7.35c-.14.44-.83.78-1.33,1s-1.73-.86-1.8-1.8c0-.31-.08-.62-.1-.79-.13-2.74.41-5.14,2.32-7.05a30.28,30.28,0,0,1,3.38-3.23,4.68,4.68,0,0,1,2.63-.6c.37,0,1.13.88,1.05,1A15.19,15.19,0,0,1,7101.11,7024.34Zm71.34-20.9a2.15,2.15,0,0,1-2.47,1c-2.93-1.14-5.79-2.47-8.66-3.75-1.13-.5-1.45-1.42-1.07-3.13.19-.88.1-2.18.63-2.54,1-.67,1.41.6,1.9,1.27a8.84,8.84,0,0,0,5.32,3.64,20.85,20.85,0,0,1,4.24,2c.2.09.28.45.42.7A3.45,3.45,0,0,1,7172.45,7003.44Z" transform="translate(-6738.36 -6905.13)"/><polygon class="cls-1" points="452.35 80.93 454.45 78 459.26 77.58 460.32 75.7 463.03 74.22 463.24 72.14 466.6 69.2 470.15 65.43 469.94 62.92 473.3 63.34 475.18 61.25 484.61 59.36 487.52 61.88 493.81 61.25 495.9 64.18 503.24 68.99 509.1 66.9 513.28 67.53 518.95 67.74 523.55 67.53 525.02 65.02 523.34 63.14 523.34 57.48 519.99 55.39 518.11 51.61 518.73 48.05 521.25 44.7 523.77 44.29 522.92 42.19 524.81 39.88 529.83 41.77 536.33 44.91 542.6 45.54 549.1 46.17 550.35 51.41 555.38 56.84 562.28 60.41 568.78 58.73 574.02 55.8 581.98 54.97 589.93 56.63 594.96 59.36 597.89 59.15 603.12 64.38 609.41 65.64 621.13 65.86 626.37 63.14 631.61 60.82 635.16 60.41 637.26 57.48 640.4 54.76 642.71 51.83 646.27 50.78 650.66 51.61 654.22 53.5 659.03 51.61 662.39 51.61 664.27 53.29 662.6 66.48 661.97 72.97 662.6 77.37 666.15 80.09 668.67 77.37 675.58 78.21 676.84 79.67 678.51 76.74 679.14 73.18 682.07 73.18 687.1 75.07 694.43 82.6 696.31 86.17 695.26 90.77 692.96 89.52 690.24 90.14 687.1 89.73 681.86 93.92 680.19 93.29 679.14 95.38 677.67 95.59 674.74 99.15 675.16 101.87 668.67 106.89 665.11 106.47 662.81 109.2 658.2 113.18 656.94 115.48 651.92 112.55 649.19 111.51 643.54 112.76 641.66 115.48 641.87 120.09 645.22 123.02 647.94 125.53 647.31 127.63 642.71 133.08 639.56 139.56 634.53 140.19 630.14 142.71 625.32 143.75 609.41 148.15 605.64 152.13 601.24 155.48 597.68 154.22 597.47 152.97 592.03 153.8 587.21 151.92 580.72 149.41 576.11 147.52 574.22 145.42 559.57 144.8 558.11 146.05 553.29 147.1 543.87 146.26 536.53 146.48 531.93 146.89 528.36 140.82 525.02 135.58 523.55 132.45 521.25 131.82 520.2 129.93 516.01 129.72 513.28 127 509.1 126.16 506.59 124.7 502.19 122.81 498.84 123.23 492.14 123.44 486.27 121.76 483.97 119.46 482.51 115.9 484.61 113.6 484.61 111.08 484.39 107.94 482.3 104.59 480.21 102.92 478.11 98.94 476.23 95.59 472.88 93.49 470.78 94.96 467.64 93.92 466.18 93.49 464.08 93.92 463.03 95.17 461.78 93.92 460.32 91.61 456.33 88.25 454.66 84.28 453.4 84.91 452.35 80.93"/><path class="cls-1" d="M7532.52,7035.82l-.27-.13-1.57-2.19-.45-.82,0,.19-2.35-.95-.47-1.88-.64-.63-1.57.47v3l.63.94-.63,2-1.41-.48-1.57,2.05-.78,2.36-3.15,2.19-2,.32,3.77,3.14-1.25,3.45-2.52-.15-3,.15-1.89-.63-1.57.63-2.66-2.66-1.27-1.57-.78,1.73-.47,3.6-2,5.5-.95.63-1.88,2.52-1.57,1.4-.94,3.15-2.36,1.89-1.21,6.32h0l1.15.33c.92.23,1.81.59,2.71.89,3.89,1.25,3.84,1.25,3.73,5.17-.07,3.17,0,6.34,0,9.52a6.41,6.41,0,0,0,1.85,4.27,3.16,3.16,0,0,0,3.34,1.26c.91-.25,1.81-.6,2.74-.79a5,5,0,0,1,1.44,0l1-1.55,2.82-3.29,2.36-.63,3.46-2.36,4.71-.62,2.87-1.86a14.5,14.5,0,0,0-4-3.79c-1.62-1-3.18-2.12-4.71-3.26a4.9,4.9,0,0,1-.93-6.06,11.27,11.27,0,0,1,2.46-2.88,30.75,30.75,0,0,0,4.6-4.74c3.74-4.12,5.23-8.4,3.28-13.9-1.43-4,.09-7.5,3.08-10.38C7531.86,7036.42,7532.19,7036.12,7532.52,7035.82Z" transform="translate(-6738.36 -6905.13)"/><path class="cls-1" d="M7522,7076.73h0c.59.4,1.18.84,1.78,1.22C7523.17,7077.57,7522.58,7077.13,7522,7076.73Z" transform="translate(-6738.36 -6905.13)"/><path class="cls-1" d="M7542.79,7109.05c-.65-1.79-1-3.68-1.55-5.51-2.22-7.44-2.16-7.49-7.22-13.2a31.72,31.72,0,0,1-5.09-6.9,12.12,12.12,0,0,0-2.9-3.69,16.3,16.3,0,0,1,1.71,2l-2.87,1.86-4.71.62-3.46,2.36-2.36.63-2.82,3.29-1,1.55a5,5,0,0,0-1.44,0,5.07,5.07,0,0,1,4.47,1.1,29.72,29.72,0,0,1,3.29,3.44c1,1.23.85,2-.71,4-1.25,1.59-1.47,2.2-.35,3.25,3.58,3.38,4.46,7.51,3.89,12.17a23.13,23.13,0,0,0-.22,3.81c.08,2.61,1.65,4.68,2.81,6.88.1.18.58.26.87.22a7.17,7.17,0,0,0,4-2.33,7.32,7.32,0,0,1,6-2.3c.94.09,1.93-.09,2.86.05,2.28.36,3.46-1,4.7-2.58C7543.42,7116.52,7544.26,7113,7542.79,7109.05Z" transform="translate(-6738.36 -6905.13)"/><path class="cls-1" d="M7525.94,7135.7a5.91,5.91,0,0,0-1.63.55c-.8.43-1.25,1.71-.76,2.17a2.63,2.63,0,0,0,1.55.68c1.61,0,2.39-.62,2.5-1.85A1.47,1.47,0,0,0,7525.94,7135.7Z" transform="translate(-6738.36 -6905.13)"/><path class="cls-1" d="M7635.26,7005.11c-2.93,2.18-5.76,1.86-8.93.47a31.38,31.38,0,0,1-10.67-7.84,23.73,23.73,0,0,0-7.56-5.65,2.23,2.23,0,0,0-2.57.5,2.39,2.39,0,0,0-.74,2.59c.46,1.5,1.24,2.9,1.79,4.37a18.09,18.09,0,0,1,1.4,4.49c.4,4.38.55,8.78.68,13.18,0,.36-.82.88-1.35,1.08a9.58,9.58,0,0,1-1.88.21c-1.81.28-1.82.29-1.84,2.43,0,.62.25,1.33,0,1.85-.81,2-2.58,3.5-2.75,5.94-.2,3.09,2.68,4.17,3.64,6.44.74,1.75,1.39,3.53,2.25,5.2a1.73,1.73,0,0,0,1.56.57c2.09-1.37,4.1-2.85,6.11-4.33a1.66,1.66,0,0,0,0-2.46c-2.17-1.26-4.34-2.53-6.48-3.84-.17-.11-.17-.85-.08-.89a16.67,16.67,0,0,0,3.47-1.29c3.78-2.61,7.07-1.81,10.38.94a11,11,0,0,0,6.05,2.54c.73.06,1.31-.14,1.49-.88.45-1.83.72-3.71,1.22-5.53a6.19,6.19,0,0,1,4.2-4.72,37.54,37.54,0,0,0,6-2.71,3.33,3.33,0,0,0,1.08-4.88c-.86-1.3-1.78-2.56-2.67-3.84a5.67,5.67,0,0,1-1.79-2.9C7636.66,7004.59,7636.28,7004.36,7635.26,7005.11Zm8.28-4.31a2.61,2.61,0,0,0-1.65-.3,2.85,2.85,0,0,0-1.21,1.38,12.27,12.27,0,0,0-1.36,6.88c2.85-2.6,4.35-4.86,4.73-7.26A.92.92,0,0,0,7643.54,7000.8Zm-4.42,8.25a1.28,1.28,0,0,0,.22.17c0-.16,0-.31,0-.46-.09.08-.15.15-.24.22A.16.16,0,0,0,7639.12,7009.05Zm-32.39,73.71c-.32-.45-.64-.91-.95-1.37-.34.42-.94.84-1,1.28s.56.91.87,1.37C7606,7083.61,7606.39,7083.19,7606.73,7082.76ZM7667,6974.59a1.11,1.11,0,0,0-.87.27,9.41,9.41,0,0,0-3.19,5.54c0,.2.27.53.49.68s.59.29.78.19a5.86,5.86,0,0,0,3.44-6C7667.39,6975,7667.23,6974.66,7667,6974.59Zm-9.61,10.23c-1.41-.15-2.14,1.18-3.29,1.61-1.77.64-3.43,1.22-4.15,3.33a55.34,55.34,0,0,1-2.53,5.05,2.69,2.69,0,0,0,.74,3.2c.1.11.7,0,.85-.24a72.27,72.27,0,0,1,9-10.7c.29-.26,0-1.12,0-1.66C7657.78,6985.17,7657.59,6984.84,7657.37,6984.82Zm-104.19,160.29a5.19,5.19,0,0,0,1.68,3.37A3.77,3.77,0,0,0,7553.18,7145.11Zm-9.13-.93a2.69,2.69,0,0,0,.18.77l.62-.21c-.07-.26-.14-.51-.2-.77C7544.44,7144,7544.06,7144.1,7544.05,7144.18Zm13.06,43.73c-1,.84-1.1,2.25-.12,2.23a3.89,3.89,0,0,0,1.63-.64c.22-.13.28-.54.42-.82-.08-.28-.07-.64-.25-.81A1.17,1.17,0,0,0,7557.11,7187.91Zm-7.79,17.05c-.95-.11-1.54.57-1.46,1.67,0,.25.32.45.5.69.26-.11.67-.11.8-.29a5.88,5.88,0,0,0,.77-1.52C7550,7205.4,7549.56,7205,7549.32,7205Zm78.77-109a28.48,28.48,0,0,0-2-14,3.57,3.57,0,0,1,1.36-4.25,4.18,4.18,0,0,0,1.94-4,33.93,33.93,0,0,1-.18-4.72,24.63,24.63,0,0,0-3.53-13.58c-2.7-4.66-6.63-8.57-8.37-13.79-.33-1-2.58-1.11-3.4-.31-3.87,3.76-6.14,8-4.12,13.57-.27,2.43-1.41,5.06,1.66,6.73.42.23.62,1.14.65,1.75.34,6.95,1.27,14-2.88,20.33a11.54,11.54,0,0,0-1,3.65c-1,4.24-4.09,6.21-7.92,7.42a2.34,2.34,0,0,1-2.29-1.27c-.16-.61-.13-1.26-.23-1.89-.22-1.42-.81-2.2-1.51-1.86a5.2,5.2,0,0,0-2.17,1.61c-.76,1.12-.17,2.42,0,3.68a7.22,7.22,0,0,1-.19,3.72,38.53,38.53,0,0,0-3,10,1.25,1.25,0,0,1-1.45,1,17.32,17.32,0,0,0-7.54.51,39.08,39.08,0,0,1-9.29,2.1,5.64,5.64,0,0,0-4,2.4,91.22,91.22,0,0,1-10.15,11.37,4.57,4.57,0,0,0-.7,2.63,3.81,3.81,0,0,1-.9,2.59c-1.53,1.59-3,3.27-4.52,4.91a5.85,5.85,0,0,0-1.44,4.38,5.14,5.14,0,0,0,2.25,4l-.24.29a3,3,0,0,1,.35.23c0-.14-.05-.27-.09-.41a1.84,1.84,0,0,1,.49-.31c1.56-.49,2.51,0,2.58,1.32a3.83,3.83,0,0,1-1.11,2.95l-.19-.18c0,.14,0,.28,0,.42l.26-.16c1.16,3.29,2.28,6.61,3.5,9.88.55,1.45,4.44,2.63,5.9,1.85a2.06,2.06,0,0,0,.79-.5c.82-1.34,2.09-2.64,2.29-4.08.71-5,1-10.05,1.51-15.07-1.51-3.32-1.91-7.53-6.63-8.33-.1,0-.19-.53-.14-.79a1.23,1.23,0,0,1,.43-.78,3.62,3.62,0,0,1,1.71-.65c2,.08,3.75.09,4.78-2.15a3.55,3.55,0,0,1,2.24-1.5c2.71-.64,5.46-1.16,8.25-.49,0-.06.09-.11.14-.19l.25-.37-.16.61c-.07,0-.15,0-.23-.05-1.05,1.53-2.13,3-4.32,2.92a6.11,6.11,0,0,0-1.9.19c-1.87.54-3.6,3.58-3,5.34.54,1.48,1.27,2.9,1.94,4.33a4.51,4.51,0,0,0,.6.71,2.53,2.53,0,0,0,4.45-.63c.46-1.53.72-3.12,2.06-4.17s3-.41,4.55-.12a1.93,1.93,0,0,0,.89-.09c2-.58,3.51-4.69,2.28-6.47-.9-1.29-2.07-2.41-2.9-3.75a2.07,2.07,0,0,1,.68-2.56,9.19,9.19,0,0,1,2.48-1.2,1.37,1.37,0,0,1,.93.1c.69.33.56.78.16,1.51s-.91,1.91-.64,2.61a19.1,19.1,0,0,0,2.68,5,15.66,15.66,0,0,0,3.6,3,2.81,2.81,0,0,0,3.41-.81c1.95-3.26,3.88-6.52,5.73-9.84a2.83,2.83,0,0,1,2.11-1.63,34.59,34.59,0,0,1,4.75-.4c2.15,0,3.26-1.6,4.84-2.5.33-.19,1.09.47,1.68.64a1.91,1.91,0,0,0,2.44-.88c.66-2.08.68-4.45,2.7-5.92a8.56,8.56,0,0,0,.68-.67,2.58,2.58,0,0,1,.44.67c.26.92.39,1.86.69,2.77a1.66,1.66,0,0,0,2.23,1c4-2,6.06-6.65,4.18-10.22A16,16,0,0,1,7628.09,7096Zm-13.57-50.56-.45.15.21-.39.39-.16Zm-51.33,122.7c-.07.19.24.52.35.78l.57-.64C7563.9,7167.25,7563.56,7167.18,7563.19,7168.11Z" transform="translate(-6738.36 -6905.13)"/><path class="cls-1" d="M7415.49,7324.48a50.18,50.18,0,0,0-5.53-16.17,24.32,24.32,0,0,0-4-5.32c-3.09-3.32-6.9-5.62-10.61-8.08-2.42-1.63-4.61-3.39-5.24-6.5-.33-1.62-1.56-2.75-2.76-3.82-1-.85-1.94-1.65-2.82-2.58a2.77,2.77,0,0,1-.94-1.6c0-3.39-1.15-7,2.23-9.68a7.78,7.78,0,0,0,2.71-4.94,4.19,4.19,0,0,1,2-3.09c3.6-2.05,7.23-4.05,10.92-5.94a2.9,2.9,0,0,1,1.12-.22,3.45,3.45,0,0,0-.79.15l-.22-.49-4.72-1.11-3.45-1.09-3.3-1.73-1.1-1.73-.63-3.14-.31-2.52s-3.61-.78-4.09-.78-3.61-1-3.61-1l-2-1.72-2,.63-2.67.79.63,2.51-3.62-.48h-1.57l-2.19,2.21h-2.05l-3.61.94-3.61-1.26-3,1.26-1.88.94-.3,0,.92,1.54,2.2.95,2.21,2.19,1.25,1.41v1.42l-.16,1.73,2.21,1.73,1.72,2.82h3.14l2.21.78,1.56-.94,2.36-.63,1.57,1.89,1.57.47.94,3,1.57.79v.93l-.94.47-.78,3-5.82,2.19.63,1.1.63,1.73-.79,1.26.79,1.26,1.1-.17,1.1,1.73,2.2.32,3.3,1.41,1.1.63,2.19,2.36,1.42.32,1.57,2.66.31,2.05,2.2,1.57,1.1,2.51,2.67.31.94,2.83,1.1.79,1.89.63v1.56l1.88.79,1.57,1.4,2.2-.61.46,1.1-1.41.94.32,3,.95.47.14,1.57-1.87,2,.63,2.2.78,3.15-1.89.78,1.11,2.67.93,1.41.94,2.51.17,2.52.32,3.92-1,3.46-1.73.94-3.14,2.36-1.89,1.73-3.14.47-1.25,1.1.15,2.51,2,1.1,1.11,2.82-2.2,1.41-1.27-1.72-2.19-.31-2.36.62-1.56-.47-.95.78-.47,1.42-2.2.79-2.4,2.6c1.85,1,3.87,2,3.66,4.87a71.73,71.73,0,0,0,.18,7.61c0,.7,1.7,1.31,2.41.91.28-.16.65-.19.87-.39,3.67-3.52,7.36-7,10.93-10.61a6.1,6.1,0,0,1,3-2.13c4.93-1,8.47-4.31,12-7.51a14.2,14.2,0,0,0,4.11-7.34c1.16-4.42,1.78-8.67-.07-13A3.26,3.26,0,0,1,7415.49,7324.48Z" transform="translate(-6738.36 -6905.13)"/><path class="cls-1" d="M7405.08,7302.17s0,0,0,0,0,0,0,0Z" transform="translate(-6738.36 -6905.13)"/><polygon class="cls-1" points="642.81 399.43 644.37 398.96 645.48 399.59 647.21 402.26 647.21 405.09 647.21 408.55 647.05 411.37 645.63 412.94 647.84 414.98 649.72 415.29 651.13 417.65 654.12 418.28 653.34 415.76 653.64 414.51 652.07 412.47 653.34 411.37 655.69 411.06 656.94 412.31 659.92 413.57 661.22 413.73 661.03 413.25 662.91 412.47 662.13 409.33 661.5 407.13 663.37 405.09 663.23 403.52 662.28 403.04 661.97 400.06 663.37 399.12 662.91 398.03 660.71 398.64 659.14 397.24 657.26 396.45 657.26 394.88 655.37 394.25 654.28 393.46 653.34 390.63 650.66 390.33 649.56 387.81 647.36 386.25 647.05 384.2 645.48 381.53 644.06 381.21 641.87 378.86 640.77 378.23 637.47 376.82 635.27 376.5 634.17 374.77 633.07 374.93 632.28 373.67 633.07 372.42 632.44 370.69 631.81 369.59 637.63 367.39 638.42 364.4 639.36 363.94 639.36 363.01 637.78 362.21 636.84 359.23 635.27 358.76 633.7 356.87 631.34 357.5 629.78 358.44 627.58 357.66 624.43 357.66 622.71 354.83 620.5 353.11 620.67 351.38 620.67 349.96 619.41 348.54 617.2 346.35 615 345.41 614.09 343.87 611.55 344.15 610.92 344.62 609.98 345.88 611.08 349.33 611.55 354.04 608.72 354.67 607.42 352.5 605.27 353.58 603.07 354.2 601.97 356.72 602.13 358.6 601.19 359.55 600.25 359.55 599.31 361.43 600.09 363.01 602.13 363.01 603.39 364.1 604.17 367.24 603.39 368.49 604.33 369.75 606.84 369.59 608.89 369.45 609.98 370.54 608.89 372.58 609.67 373.99 609.2 376.5 609.36 384.52 611.08 384.83 612.65 384.05 613.6 382.31 615.48 381.53 617.99 382.17 620.5 382.79 621.61 384.2 624.43 384.2 626.47 381.06 628.98 379.65 632.76 380.9 633.7 382.31 639.51 386.55 640.45 388.6 639.51 390.33 640.29 392.83 639.82 395.98 642.81 399.43"/><path class="cls-2" d="M7380.85,7350.43l2.2-.79.47-1.42.95-.78,1.56.47,2.36-.62,2.19.31,1.27,1.72,2.2-1.41-1.11-2.82-2-1.1-.15-2.51,1.25-1.1,3.14-.47,1.89-1.73,3.14-2.36,1.73-.94,1-3.46-.32-3.92-.17-2.52-.94-2.51-.93-1.41-.91-2.2-1.3-.16-3-1.26-1.25-1.25-2.36.31-1.26,1.11,1.57,2-.31,1.26.79,2.52-3-.64-1.41-2.35-1.88-.32-2.21-2,.13-.14-2,.46-.52-1.26-2.82.64-2.21-.84-3.24.93-.95-.42-1.56-.21-4,1.06h-1.26l-.84.63-1.46,2-.21,2.1-1.57,1.57-.22,3.35.95,3.24,1.15.21.94,2-.73,4-.67,2.19a10.83,10.83,0,0,1,2.68,3.49c2.17,4.69,6.43,7.65,10.27,10.93.85-.35,2-1.24,2.51-1Zm-6.74-19.81a5.67,5.67,0,0,1,.57-.1l.46.61C7374.61,7331.48,7374.26,7331.31,7374.11,7330.62Z" transform="translate(-6738.36 -6905.13)"/><path class="cls-2" d="M7415.49,7324.48c-.05-.39-.17-.77-.23-1.16h0C7415.32,7323.71,7415.44,7324.09,7415.49,7324.48Z" transform="translate(-6738.36 -6905.13)"/><path class="cls-2" d="M7267.6,7250.28a3.56,3.56,0,0,1,.53.3A2.85,2.85,0,0,0,7267.6,7250.28Z" transform="translate(-6738.36 -6905.13)"/><path class="cls-2" d="M7268.27,7250.66a1.21,1.21,0,0,1,.39.4A1.31,1.31,0,0,0,7268.27,7250.66Z" transform="translate(-6738.36 -6905.13)"/><path class="cls-2" d="M7273.05,7262.3c-.49-.86-.94-1.75-1.37-2.67a25.4,25.4,0,0,0,2.15,4.07C7273.55,7263.25,7273.32,7262.76,7273.05,7262.3Z" transform="translate(-6738.36 -6905.13)"/><path class="cls-2" d="M7336.67,7330.32l-.22-5.64-.83-2.94-6.49-5.86-1.26-4.82,1.46-1-.83-4.82,2.1-2.31v-1.46l-1.05-1.26-1.05-2.3-2.08-1.05-1.06-3.56-3.56-2.72-2.09-3.77-1-.84,2.92-2.72-.21-2.3,1.05-2.31v-2.29l1-2.11,2.31.21,2.51-.41,2.31-.21.21-2.52,1.67-1,1.47.21v-1.26l-.84-1,1-1.05,3.71-.14-.19-.39.94-1.88h.94l.94-1-.16-1.88,1.1-2.51,2.19-.63,2.16-1.08,1.3,2.18-1.41-2.36.31-1.73-1.09-.63-3.77,1.42h-2.36l-1.72.94-1.27-2-.15-2.83-1.09-.78-1.26.78-1.73-.15-1.89-.48,2.68-3,.46-2.67.48-2.52-1.1-.93-3.62-.48v-.62l-2.36-1.26-.15-3-2.35.48-.95-2.83-2.83.16-2.19,1.56-.11-3.7-2.3-1.89-.21-2.51.42-3.15h1.26l1.67-.42-1-2.72.41-.83,1.05-1.88,1.68-2.73-.42-6.07-.84-3.35-.84-2.72-1.67-.63-.63-1.89-2.3-3.76h-2.52l-2.09.42H7308l0,1.72-2,1.25.14,2.83-2.19-1.11-5,2.21-2,3.92-2.36,1.11-2.93,4.28.21,1.79.42,1.26-.73,2.3-2.51,4v1.36l2,.41-2.29,8-2.1,3.13-2.93-.41-1.68.1,1.26,3.35-.63,4.82-1.25.09.1,4.09v1.36l-.84,2.83-.52.32-.94-.22-.24,3.6-.56,2.11-.78-.08-1.56,1.73-.32,2s0,1.75,0,2.91a23.4,23.4,0,0,1-1.78-2.6l0,.25a19.19,19.19,0,0,0,8.08,7.2c.86.41,1.73.8,2.57,1.27,1.35.73,1.67,1.84,1.22,4-.61,2.94-.26,3.93,2.64,5.12a6.94,6.94,0,0,1,4.18,3.6c.14.28.3.56.43.85,2,4.1,3,8.27,1.56,12.86a14.59,14.59,0,0,0-.16,4.73c.05,1.31,2,3.19,3.17,3.14,3.51-.17,7-.3,10-2.5,2.32-1.69,4.74-3.22,7.16-4.75.45-.28,1.43-.42,1.7-.16,1.77,1.75,4.2,2.94,4.74,5.76a51.77,51.77,0,0,0,1.67,6.48c1.72,5.41,2.5,11.19,6.06,16a10.58,10.58,0,0,1,1.35,3.53c.36,1.23.37,2.55.75,3.76a23.57,23.57,0,0,1,.21,14.08,7.09,7.09,0,0,0-.35,3.72,13.81,13.81,0,0,1,.51,2.84l1.1-1,1.67-4,.21-1.89,2.09-2.09,1.68-4.19,1.47-.63-1.47-4.39Z" transform="translate(-6738.36 -6905.13)"/><path class="cls-1" d="M7342.33,7361.07s0,.1.06.15l.13,0Zm41.51-56.34-1.11-.63-1.57.46-3-3.45.47-3.15-.78-2.5.93-1.73-.93-2-5.81-4.25-.94-1.4-3.78-1.26-2.51,1.41-2,3.14H7360l-1.11-1.41-2.51-.62-2.51-.63-1.88.77-.95,1.74-1.57.78-1.72-.3-.17-8,.48-2.5-.78-1.42,1.09-2-1.09-1.09-2.05.14-2.51.16-.94-1.25.78-1.26-.78-3.14-1.26-1.09h-2l-.59-1.19-3.71.14-1,1.05.84,1v1.26l-1.47-.21-1.67,1-.21,2.52-2.31.21-2.51.41-2.31-.21-1,2.11v2.29l-1.05,2.31.21,2.3-2.92,2.72,1,.84,2.09,3.77,3.56,2.72,1.06,3.56,2.08,1.05,1.05,2.3,1.05,1.26v1.46l-2.1,2.31.83,4.82-1.46,1,1.26,4.82,6.49,5.86.83,2.94.22,5.64,1.46,6.71,1.47,4.39-1.47.63-1.68,4.19-2.09,2.09-.21,1.89-1.67,4-1.1,1h0a18.18,18.18,0,0,1-1.12,7.46c-1.32,3.86-.86,6.91,3.38,8.51a2.2,2.2,0,0,1,.79.53c3.48,4.37,7,8.7,10.37,13.13l2.55-1.93,6.91,2.3-.64,4.19.85,1.46,4-1.25,1.68.42.63-1.46,2.69-1.56-.14-.14c-3.87-1.43-6.29-5-10.18-6.63a7,7,0,0,1-4.43-6.73,6.93,6.93,0,0,0-2.12-5.13c-2.09-2-3-4.63-4.19-7.14a5.57,5.57,0,0,1-4.7-5.11,12.07,12.07,0,0,1,.41-5.65c2.28-6.95,4.63-13.88,5.13-21.27a1.21,1.21,0,0,1,.45-.79,3.54,3.54,0,0,1,1.56-.87,2.61,2.61,0,0,1,1.72.46,2.64,2.64,0,0,1,.95,1.58c.44,3.46,2.42,5,5.83,4.92a4.91,4.91,0,0,1,2.78.5,67.58,67.58,0,0,1,6.39,4.54l.67-2.19.73-4-.94-2-1.15-.21-.95-3.24.22-3.35,1.57-1.57.21-2.1,1.46-2,.84-.63h1.26l4-1.06,1.56.21.95.42,3.24-.93,2.21.84,2.82-.64.52,1.26,2-.46-.13.14,1.42-1.57.15-2.82v-6.29Z" transform="translate(-6738.36 -6905.13)"/><path class="cls-1" d="M7299.82,7191.28h1.46l1.46,2.73-.83,2.09.63,1.68h2.1l2.72,1.26h1.88l2.09-.42h2.52l2.3,3.76.63,1.89,1.67.63.84,2.72.84,3.35.42,6.07-1.68,2.73-1.05,1.88-.41.83,1,2.72-1.67.42h-1.26l-.42,3.15.21,2.51,2.3,1.89.11,3.7,2.19-1.56,2.83-.16.95,2.83,2.35-.48.15,3,2.36,1.26v.62l3.62.48,1.1.93-.48,2.52-.46,2.67-2.68,3,1.89.48,1.73.15,1.26-.78,1.09.78.15,2.83,1.27,2,1.72-.94h2.36l3.77-1.42,1.09.63-.31,1.73,1.41,2.36,2.83-.64-.47-4.7-1.1-3.45.94-1.26.63-.48,2.83-.31,1.88-.94,3-1.26,3.61,1.26,3.61-.94h2.05l2.19-2.21h1.57l3.62.48-.63-2.51,2.67-.79,2-.63,2,1.72s3.14,1,3.61,1,4.09.78,4.09.78l.31,2.52.63,3.14,1.1,1.73,3.3,1.73,3.45,1.09,4.72,1.11.22.49a5.39,5.39,0,0,1,2.43-.16c.94.13,1.78.72,2.7.94,2.28.56,4,1.43,4.44,4.17a7.37,7.37,0,0,0,3.19,4.6,2.82,2.82,0,0,0,4.45-1.69,15.19,15.19,0,0,0,0-2.86l.21.22.13-.53-.3.26c-.28-.46-.66-.91-.63-1.35a1.76,1.76,0,0,1,1.07-1.32c4.43-.74,8.2-3.27,12.51-4.46a13.1,13.1,0,0,0,8.55-7c.5-1.09,1.28-1.08,2.17-.52,1.06.68,2,1.56,3.46.87a26.26,26.26,0,0,1,8.16-2.36,30.75,30.75,0,0,0,6.31-2c2.18-.76,4-2,4.61-4.4.27-1,1.27-1.21,2-1.74,3.09-2.13,6.45-4,7.8-7.87a1.56,1.56,0,0,1,.48-.79c2.72-1.48,4-3.93,4.94-6.71.35-1,1.45-1,2.31-1.33,1.53-.61,2-1.5,1.64-2.91a21.2,21.2,0,0,1-.53-7.45c.12-1.54-.64-2.87,1.28-3.95a9.85,9.85,0,0,0,4.89-7.76c.26-2,.83-3.82,2.42-5a7.25,7.25,0,0,0,2.9-6.6,8.64,8.64,0,0,1,1.09-4.53c1.69-2.76.54-4.89-1.11-6.92a24.43,24.43,0,0,0-3.55-3.16,4.51,4.51,0,0,0-3.38-.68c0,.06,0,.13,0,.19l-.56,0,.32-.22.26,0a5.21,5.21,0,0,1,.64-2.38,37.7,37.7,0,0,1,3.39-3.15,2.6,2.6,0,0,0,.35-3.33c-1-2-2.91-3.08-4.5-4.47l-.23,0-.42-.38.58.3.07.05a4.92,4.92,0,0,0,1.61-.36c2.08-1.06,2.55-3,1.08-4.64a15.26,15.26,0,0,0-3.45-3.23,11.75,11.75,0,0,1-5-5.53c-1.49-3.16-3.25-6.18-4.82-9.31a9.52,9.52,0,0,0-4.52-4.72c-1.16-.53-2.25-1.18-3.39-1.77-2.62-1.36-3.38-3.6-3.13-6.39.19-1.91.32-3.77,1.6-5.38a16.88,16.88,0,0,0,2.59-4,13.65,13.65,0,0,1,5.75-6.17,15,15,0,0,1,8-2.67c1.1,0,1.58-1,1.82-1.91a12.14,12.14,0,0,0,.32-2.82,3.4,3.4,0,0,0-2.75-3.39c-1.57-.08-3.15.14-4.72.1a13.46,13.46,0,0,1-3.71-.52,21.32,21.32,0,0,1-3.32-1.85,3.69,3.69,0,0,0-3.65.29c-2.34,1.2-3.71,3.42-5.44,5.27a5.35,5.35,0,0,1-2.46,1.26,3.17,3.17,0,0,1-3.84-2.1c-1-2.47-2.17-4.38-5-5.18s-4.83-3-6.67-5.2c-1.59-1.93-.29-5.72,2.11-6.15.93-.16,1.9-.15,2.86-.23a4.36,4.36,0,0,0,4.24-3.22c1-3.68,1.59-7.5,5.78-9.32,1-.41,1.47-2,2.09-3.08.95-1.65,1.72-3.42,2.78-5a4.07,4.07,0,0,1,2.29-1.5c2.47-.6,4.27.72,5.84,2.43,1.3,1.41.91,2.9.1,4.39-.31.56-.56,1.14-.88,1.69a6.39,6.39,0,0,0-.53,6.35c.42.86.57,1.83,1,2.71.63,1.5-.47,2.29-1.22,3.25a1.55,1.55,0,0,0-.42.85c.07.55.14,1.27.51,1.58a2.06,2.06,0,0,0,1.71.33,11.18,11.18,0,0,0,4.91-4.38c3.25-4.95,8.29-6.68,13.73-7.64a3.68,3.68,0,0,1,1.59.16l1.21-6.32,2.36-1.89.94-3.15,1.57-1.4,1.88-2.52.95-.63,2-5.5.47-3.6.78-1.73,1.27,1.57,2.66,2.66,1.57-.63,1.89.63,3-.15,2.52.15,1.25-3.45-3.77-3.14,2-.32,3.15-2.19.78-2.36,1.57-2.05,1.41.48.63-2-.63-.94v-3l1.57-.47.64.63.47,1.88,2.35.95.15-3.31,3.93.16v-2.51l.32-4.24-1.58-1.25-.15-6.29-4.24-9.27,5.5-2.35,1.88,4.24,2.67,2.35,1.1-.62.16-7.85,2.35-2.83,1.42-6.76.94-5-1.26-5-.47-4.71-.32-3.77,2.05-2.51-.94-3.14-2-3.61-1.42-3.15-3.14-.93-3.92,3.45-2.84,1.73-2.66,3.76-2.2,2.52-4.87.95-1.41-1.42-3.15.62-4.86-4.7.78-4.25-2-2.35.78-2.2h-4.87l-5.81-4.4-2.51-2.2-3.61,1.1-3.61-3-3.3.15-4.87-.94-2.88-3.14-.31-2.93-1.57-1.46-1.57-4.61-3.35-2.3-2.09-4-1.05.1-1.68-3.77-4.19-4.92.47-2.51-2.35-.32-1.1-3.76-1.88-1.89-2.52-2.2-2.83-1.88s-1.1-1.73-1.57-1.73-4.08-.16-4.08-.16l-.63.94-3.14-.94-1.41.16-2.52-1.73-3.77-1.1-3.29.31-1.88,1.73-3.46.79-3.3.94-2.35,1.57-5.19.63-1.88,3.45-1.57,4.08,1.25.95,1.42-.32s1.72-1.56,2-1.1,1.72,3,1.72,3l1.73,3.29.15,3-1.88,2.05-.62,2-1.73,2.83.95,2.67.46,3.62-1.26,3.13.48,3.45.15,2.36,2.83.32-.16,2.36-1.72,2-3.46,1.09-5.18,4.41-3.3-1.42h-1.88l-2.67-.09.1.09-1.68,13.2-.63,6.48.63,4.4,3.56,2.72,2.52-2.72,6.91.84,1.25,1.46,1.68-2.93.62-3.56h2.94l5,1.89,7.34,7.54,1.88,3.56-1.05,4.6-2.31-1.25-2.71.63-3.15-.42-5.23,4.19-1.67-.63-1.06,2.09-1.46.21-2.94,3.56.43,2.72-6.49,5-3.56-.41-2.3,2.72-4.61,4-1.26,2.31-5-2.94-2.72-1-5.65,1.25-1.88,2.73.21,4.6,3.34,2.93,2.73,2.51-.63,2.1-4.61,5.45-3.14,6.48-5,.63-4.39,2.52-4.82,1-15.91,4.41-3.77,4-4.4,3.35-3.56-1.26-.21-1.24-5.44.83-4.82-1.89-6.49-2.51-4.61-1.88-1.89-2.11-14.65-.61-1.47,1.25-4.81,1-9.43-.83-7.33.21-4.6.42-3.57-6.08-3.34-5.24-1.47-3.13-2.3-.63-1.06-1.89-4.18-.21-2.73-2.72-4.18-.84-2.51-1.46-4.4-1.89-3.35.42-6.7.21-5.87-1.67-2.3-2.31-1.46-3.56,2.09-2.3v-2.51l-.21-3.14-2.09-3.35-2.09-1.68-2.1-4-1.89-3.35-3.34-2.1-2.1,1.47-3.14-1-1.46-.43-2.1.43-1,1.26-1.25-1.26-1.47-2.3-4-3.36-1.67-4-1.26.63-.83-3.16-2.69-.75-3,2.45-1.67,2.72v1.88l-3.14,1.68-1.47,2.3.43,4.82,2.09,4.39-1.68,2.93-2.31,1.26-1,1.89-2.09-.21-3.77-.42-4.19-.21-4.19-1-2.1,6.5-.62,8.58,2.09,2.93-.42,3.35-3.35.63-.63-.83-8.37,2.3-3.36.2-2.09,2.3,5,1.26v3.15l2.09,6.91,2.51,3.56-.21,2.93-.21,1.89,1.26,1.25-1.88,2.09-1,2.52-1,.83-4.19-.63-2.94-5-2.93,1.26-7.53-1.47-5.66.21-6.91.42-3.76,1.88-9.43-2.51-6.07.21.42,5.23-11.73.42-6.28-.42-1.68,2.72-.73,1.2-.22-.57.84,2.2-3.35,5.77,7.54,3.87,1.78-3.87,4.92,3.13.32,1.89-2.21,2.2-2.61-.22-3.46.95-2.51-2.82-4.19,1.87-4.39,2.84.1,1.78,2.3,2.3-5.76,2.09.42,2.3s-4,2.83-4.4,2.94l-5.13,1.15,2,4.92,3.67-.52-.21,3.35,2.3,2.82.22,2-2.31,4.7-.4,4.94,1.87,2.29,3.56-1.26,3.56-2.52,1.26,2.1h2.92l-.2-3.14,1.88-1.47,3.35.42,1.46-2.51-.62-2.09.42-1.89,2.3-2.73,2.93,1.47,1,3.78,1.48,2.09.62,4.82,1.26,3.34,3.35,2.1,2.09-1.27,4-2.92,2.3-2.1,3.14-2.72,3.14.63,5-1.05,1.68,1.47-1.25,1.26h1.46l1.68,1.46,1-.42,2.1-.41,1.67-.63,1.47,1.67,5.65,7.12.63,2.93,2.3,2.09,7.75.85,1,2.09,4.81,1.26,1.67,5.23,2.72,2.72L7157,7145l.42,4.6,2.51,3.56,2.09,5.24-1.25,1.89-1-1.26-2.1,2.1,2.3,3.55-.2,3.56,1.25,2.93,3.35,5.45,1.68-1.47h1.88l4,2.92,2.94,2.94,5.23,2.52,2.3-1.68,3.35.22,3.14,2.08h2.1l2.93,2.72,2.51,1.05,2.73,3.56,1.67-1.88h1.88l2.51,1.67,2.1,2.73,3.77-.42.84,3.35,3.77,2.93,2.08-1.46,2.1-1.26,4.4.63,1.25,2.3,1.89.63,2.73,2.3,2.51-.21,3.35-.41,2.3-1.06h2.3l1.47,2.94.84,1.26,2.51-3.77,3.56-2.31,3.35-1.47,3.77,2.31,3.56.21,4.19.41,2.09,1.48,4.4-1.48,1.26-2.3h1.25l2.52-1.67,1.25-2.31,4.82-1.26,1.67-4,2.3-1.05,1.47,1.05,3.14-.21,1.89.84,1-1.05s-.41-.84.21-1.05,4.2-1.24,4.2-1.24l2.09,1-.63,2.73Zm179.93-29.5c.16,0,.48.4.49.64a7.45,7.45,0,0,1-.06,1.33l.2.11.35.5-.57-.28c0-.12,0-.22,0-.33-.41-.23-.9-.42-1.1-.77C7478.71,7162.38,7479.06,7161.84,7479.75,7161.78Zm-16.42-20.29c.2,0,.36.33.54.51l-.64.42c-.23-.08-.59-.1-.66-.25C7462.34,7141.67,7462.64,7141.37,7463.33,7141.49Zm-9.32,42.62c.2.18.54.31.59.52a7,7,0,0,1,.24,1.7c0,.12-.33.25-.5.37-.34-.74-.69-1.5-1-2.26C7453.34,7184.42,7453.77,7184.23,7454,7184.11Zm82.86-183.06a2.35,2.35,0,0,1,2.08,1.43c.17.9.25,1.79.37,2.74a13.6,13.6,0,0,1-1,2.51c-.17.25-1.36.27-1.47.06a25.47,25.47,0,0,1-1.89-4.07C7534.55,7002.67,7535.73,7001.16,7536.87,7001.05Zm-128.2-32.57c-.2-.1-.59-.24-.58-.32a15.82,15.82,0,0,1,.43-1.56c.2.13.58.26.57.34C7409,6967.46,7408.81,6968,7408.67,6968.48ZM7421,7187.09l.16.13c1.3-.35,2.8-.13,3.87-1.33.49-.55,1-.29.92.57a1.94,1.94,0,0,1-.79,1.46,3.42,3.42,0,0,1-4-.7c-.13,0-.28.05-.41.1v-.67Z" transform="translate(-6738.36 -6905.13)"/><path class="cls-2" d="M7420.49,7280.86a21.27,21.27,0,0,0,3.55-8.73,3.12,3.12,0,0,0-1.34-2.34,11.4,11.4,0,0,0-3-1.14c-.9,0-1.21,0-1.54,0-4.85-.23-8.57,1.87-11.53,5.55a4.6,4.6,0,0,0-.83,1.69,7.43,7.43,0,0,0,4.54,8.45A9.5,9.5,0,0,0,7420.49,7280.86Z" transform="translate(-6738.36 -6905.13)"/><path class="cls-1" d="M7498,7250.65c.56.51,1.21.25,1.45-.55.42-1.52.39-3.3,1.19-4.57,2.32-3.7,2.64-7.73,2.82-11.92.16-3.16.75-6.32,1.14-9.47a4.92,4.92,0,0,0-3.54-5,2.17,2.17,0,0,0-1.8.18,22.43,22.43,0,0,0-3.91,4.07,52.48,52.48,0,0,0-2.88,6.05,15.24,15.24,0,0,0-1.48,7.22c.07,4.45.72,8.45,4.44,11.28A33.63,33.63,0,0,1,7498,7250.65Z" transform="translate(-6738.36 -6905.13)"/><path class="cls-1" d="M7382.23,7428.39a4.29,4.29,0,0,0-1.87-.19c-1,0-2.1.11-3.16.19,1.49.89,2.94,1.86,4.48,2.63.35.17,1.07-.27,1.56-.53a.82.82,0,0,0,.18-.8A3.49,3.49,0,0,0,7382.23,7428.39Zm-3.58-1.86a2.55,2.55,0,0,0,1-3.3c-1.13-2.6-1.91-5.52-3.68-7.59-2.26-2.67-2.75-5.57-2.87-8.72-.07-1.9,0-3.79,0-5.68a9.26,9.26,0,0,0-2-6.2c-2.43-2.87-5.19-5.48-7.8-8.19l.14.14-2.69,1.56-.63,1.46-1.68-.42-4,1.25-.85-1.46.64-4.19-6.91-2.3-2.54,1.93c.27.35.55.68.82,1.05,1.82,2.39,1.54,5.42,2,8.23a5,5,0,0,0,.72,1.75,9.23,9.23,0,0,1,1.13,5.52,6.63,6.63,0,0,0,2,5.19c2,2,4,4,4.65,7,.16.81,1.1,1.5,1.8,2.15.93.86,2.27,1.42,2.89,2.44,1.58,2.66,4.13,3.84,6.72,5.13,3.12,1.55,6.2,3.22,9.29,4.83l-.24.27.63,0c-.12-.08-.24-.14-.36-.21A21.41,21.41,0,0,1,7378.65,7426.53Zm31.82-23.94c-1.23.3-1.83,1.5-1.33,2.23a3,3,0,0,0,1.38,1.08c.79.27,1.91-1,1.51-1.78A6.25,6.25,0,0,0,7410.47,7402.59Zm85.55-8.14c-2.19-1.27-4.39-2.49-6.61-3.69s-4.69-2.16-5-5.22a40.14,40.14,0,0,0-3.94-4.09c-.55-.46-1.78-.33-2.63-.13a5.67,5.67,0,0,0-3.79,2.67c-.93,1.66-1.69,3.43-2.64,5.06a10.47,10.47,0,0,1-2.27,3c-2.23,1.71-4.48,3.6-7,4.65a15.59,15.59,0,0,0-8.32,7.41c-.88,1.67-2.35,3-3.4,4.6a12.19,12.19,0,0,1-8.4,5.74c-3.49.62-5.5,3-6.78,6.09-.49,1.18-.89,2.38-1.39,3.55a2.82,2.82,0,0,1-3.25,1.31c-2.1-.73-4.18-1.51-6.27-2.29a6.08,6.08,0,0,0-.85-.2l3.86,4.95,2.19,3,2.52-.32,1.41-.77,3.15-.49s4.55,0,5.18-.31,4.71-1.88,4.71-1.88l3.61-.47,3.3,1.42,3-.79,5.33-1.26.32-1.42,2.66-4.23,2.21-4.71,2-4.56,1.26-5.5.94-2.36,1.41-1.4,1.42.31,6.59.31,7,1.71a9.06,9.06,0,0,1,.74-.58,3.92,3.92,0,0,0,1.93-3.08,2.9,2.9,0,0,1,2.35-2.59c1.24-.33,2.51-.56,3.3-1.73a3.91,3.91,0,0,0,.32-.87C7496.16,7395,7496.19,7394.55,7496,7394.45Z" transform="translate(-6738.36 -6905.13)"/><path class="cls-1" d="M7409,7464.27a8.23,8.23,0,0,0,2.12-1.05c.14-.65.31-1,.24-1.25-.43-1.73-2.92-3.1-4.47-2.48a1.63,1.63,0,0,0-.67.66,2.45,2.45,0,0,0-.32,2.62A2.64,2.64,0,0,0,7409,7464.27Zm-24.14-23.61c-.15-.72-.76-1.1-1.33-.72-.36.24-.47.83-.65,1.34a8.33,8.33,0,0,0,1.5,0C7384.55,7441.31,7384.88,7440.84,7384.84,7440.66Zm121.2,47.66c.23-.09.62-.15.63-.23a2.36,2.36,0,0,0-.2-.79c-.22.07-.61.13-.61.23A2.37,2.37,0,0,0,7506,7488.32Zm-123.66-46.38a6.73,6.73,0,0,0-.62.79c-.08.11.11.42.19.64C7382.1,7442.89,7382.23,7442.42,7382.38,7441.94Zm.48-.66h-.25c-.09.22-.15.45-.23.67.15-.16.28-.33.42-.49Zm174.92-37.79h-.11l.06.1A.9.9,0,0,0,7557.78,7403.49Zm27.32,50c-.17-.41-.76-.64-1.15-1a4.79,4.79,0,0,0-1.28.9c-.36.55,0,1.09.72,1.26C7584.44,7454.9,7585.4,7454.26,7585.1,7453.49Zm-67.9,27.64c-.1.78.23,1.1.78.83.18-.1.19-.5.28-.74-.16-.23-.34-.44-.5-.67C7517.57,7480.74,7517.23,7480.92,7517.2,7481.13Zm34.19,21.7a5.93,5.93,0,0,0,1.81-.17,1.94,1.94,0,0,0,1.1-1.19c.05-.35-.56-.85-1-1.18-.19-.15-.6-.06-.9-.05s-.62,0-.93.06c-.92.11-1.86.3-2.18,1.31C7549.14,7502.2,7550.14,7502.76,7551.39,7502.83Zm79-51.46a1.16,1.16,0,0,0-.58.69c0,.22.3.52.54.68a1.94,1.94,0,0,0,.9.23,2.47,2.47,0,0,0,2.49-.89c-.78-.39-1.58-.75-2.1-1A5.22,5.22,0,0,0,7630.43,7451.37Zm1.13-4.71c.19-.05.31-.45.46-.69a2.3,2.3,0,0,0-2.54-2c-.25,0-.68.43-.64.5a7.49,7.49,0,0,0,1.14,2.15C7630.23,7446.93,7631,7446.75,7631.56,7446.66ZM7539,7453.4a.87.87,0,0,0,.81,1.33c1.52.08,3,0,4.57,0v-.08c1.23,0,2.47.06,3.69-.05.36,0,.68-.58,1-.9-.24-.19-.43-.53-.68-.55-2.72-.34-5.46-.68-8.19-.88C7539.86,7452.27,7539.23,7452.93,7539,7453.4Zm-44.31,13.82c.71.64,1.6,1.05,2.3,1.68a5.08,5.08,0,0,1,1.68,5.17c-.52,2.16-1.66,4.2-1.23,6.5a4.57,4.57,0,0,0,1.17,2.48c1.93,1.68,4.2,1.18,6.29.34,1.48-.59,1-2.09.95-3.33,0-5.73,1.29-11.32,1.84-17,0-.4.91-1,1.42-1s1.25.7,1.25,1c-.17,3.25,0,6.23,2.76,8.62.8.69.72,2.37,1.1,3.56.7,2.19,1.47,2.69,4.33,2.78a14.39,14.39,0,0,0,1.73-.13,1.7,1.7,0,0,0,0-.22c.22,0,.35-.2.55-.27a4.07,4.07,0,0,0-.33.48h-.18c.35,1.81.62,3.65,2.85,4.26a5.07,5.07,0,0,1,.82.49c1.4.74,3.56-.07,3.83-1.43a22.48,22.48,0,0,0,.39-7.58,3.68,3.68,0,0,0-2.1-3,12.22,12.22,0,0,1-2.47-1.45,3.05,3.05,0,0,1-1.41-3.23,5.31,5.31,0,0,0-1.06-4.51c-1.14-1.51-2.25-3.06-3.37-4.6a2.14,2.14,0,0,1,.59-2.56c1.55-1.09,3.12-2.17,4.74-3.17a4.27,4.27,0,0,1,3.65-.12,6.44,6.44,0,0,0,2.8.12c.56-.07,1.44-.56,1.5-.94a37.41,37.41,0,0,0,.31-5.6,1.75,1.75,0,0,0-1.12-1.28,10,10,0,0,0-3.73-.2c-2.49.46-4.93,1.66-7.41,1.76-3.09.1-5.58.82-7.57,3.26a1.89,1.89,0,0,1-1.77.16,9.06,9.06,0,0,1-5.36-6.28c-.63-2.66,1.83-5.9,4.57-6.12a93.57,93.57,0,0,1,20.89.38c6.73.94,11.6-1.61,15-7.72a2.18,2.18,0,0,0-.5-2.58,2.12,2.12,0,0,0-2.6-.53c-1.18,1-2.29,2.18-3.51,3.15-2.05,1.6-4.16,2.68-7,2.18-3.76-.67-7.61-.75-11.38-1.28-2.5-.35-4.93-1.43-7.42-1.5-3-.11-4.23,3.84-7.41,3.89a1.82,1.82,0,0,0-.87.36,6.52,6.52,0,0,0-3.17,4.55c-.22,1.25,0,2.57-.28,3.81a7.75,7.75,0,0,1-1.28,3.51,10.13,10.13,0,0,0-2.6,7,16.12,16.12,0,0,1-1.66,6.42,29.42,29.42,0,0,0-1.81,4.41A5,5,0,0,0,7494.71,7467.22Zm27.67,8.51.32.1a1.75,1.75,0,0,1,1.89-1.08.88.88,0,0,1,.82,1.22c-.06.22-.45.57-.61.52-.71-.17-1.4-.43-2.1-.66,0,.05-.08.07-.1.12a2.47,2.47,0,0,0-.52.31A5.54,5.54,0,0,0,7522.38,7475.73ZM7530,7507c-.65.39-.56.8.23,1,.2.05.49-.17.73-.26-.05-.22,0-.54-.18-.62A.92.92,0,0,0,7530,7507Zm18.21-97.47-.29.46.48,0Zm-9.91,96.54c0,.39.52.8.81,1.2.87.1,2-.89,1.68-1.54a1.22,1.22,0,0,0-.6-.52C7539.2,7504.88,7538.32,7505.23,7538.31,7506Zm48.09-42.53c-5.22-3-10.83-3.17-16.55-2.06a4.07,4.07,0,0,0-3.22,3.14c-.49,1.8.62,3.39,2.17,3,6-1.67,11.86-1.51,17.47,1.51a5.18,5.18,0,0,0,.9.25c.78.27,1.91-.51,2.16-1.87a7.26,7.26,0,0,0-.76-2.15A6.61,6.61,0,0,0,7586.4,7463.51ZM7569,7443.86c-.14-.11-.29-.21-.45-.32C7568.62,7444,7568.75,7444.19,7569,7443.86Zm-.45-.32a1.68,1.68,0,0,1,0-.43l-.3,0,.05.22ZM7554,7508c-5.09.12-10.19,0-14.58,3.38-1.2.91-3.06.88-4.43,1.64a12,12,0,0,0-3.67,3,11.69,11.69,0,0,0-2.93,7.66,7.07,7.07,0,0,0,2.62.08c3.3-1.08,6.62-2.11,9.2-4.75a16.6,16.6,0,0,1,9.95-5.21,13,13,0,0,0,4.36-1.84c1.08-.58,2.37-1.06,2.57-2.57C7557.21,7508.63,7555.8,7508,7554,7508Zm10.35-63.2a17,17,0,0,0,2-1.49l.19.18-.12-.24,1.78-.16c-.35-1.46-.74-2.92-1-4.38a2,2,0,0,1,1.11-2.33,5,5,0,0,1,.92-.24c1.67-.36,3-.84,2.26-3.1a3.32,3.32,0,0,1,.76-2.5c.79-1,1.77-1.86,1.74-3.19,0-.57-.33-1.44-.74-1.6a7.33,7.33,0,0,0-2.7-.36,2.31,2.31,0,0,1-2.31-1.21c-.44-.82-.28-1.15,1.26-2.06.54-.31,1.24-.48,1.58-.93a2.39,2.39,0,0,0,.08-1.56c0-.17-.55-.45-.76-.4-6.73,1.77-8.21,5.75-7.74,12.06a31.7,31.7,0,0,0,.62,3.74c.42,2.16.87,4.31,1.3,6.47l-.21-.18.18.18a7.13,7.13,0,0,0-1.66.44,1.5,1.5,0,0,0-.82,2.12A1.61,1.61,0,0,0,7564.38,7444.84Zm-38.32,80.77a1.59,1.59,0,0,0-.07.2l.25,0c.73-.63,1.45-1.29,2.17-1.94a.92.92,0,0,0,0-.16l-.22,0Zm24.78-60.58a2.2,2.2,0,0,0,.08,2.57,6.49,6.49,0,0,0,6.67,2.09,5.72,5.72,0,0,0,2.3-1.42c.39-.36.43-1.09.64-1.63a5.66,5.66,0,0,0-.71-1.66A6.05,6.05,0,0,0,7550.84,7465Zm114.44-8.28a80.09,80.09,0,0,1-15.32-5.18c-4.55-2-8.45-3.12-11.42,2.13a1.8,1.8,0,0,1-.66.68,27.93,27.93,0,0,0-10.76,9.11,3,3,0,0,1-3.53.17c-1.84-1.73-3.64-3.51-5.47-5.26a4.37,4.37,0,0,1-1.3-3.45,21.83,21.83,0,0,1,.39-3.78c.52-2.38-.51-4.41-1.51-6.34-.79-1.53-2.68-1.43-4.19-1.85-1.82-.5-3.57-1.31-5.36-1.95a6.73,6.73,0,0,0-5.55.3c-3.36,1.73-6.51,3.92-10.31,4.75-.36.1-.75,1-.73,1.52a2.08,2.08,0,0,0,.85,1.55,14.37,14.37,0,0,0,3.45,1.48c1.59.45,3.12,1,3.87,2.55,1.46,3,3.94,3.95,7,3.87,1.91,0,3.82-.17,5.71-.13.43,0,.83.56,1.24.84-.2.22-.44.62-.63.6-3.58-.27-6.52,2.4-10.1,2.26a.81.81,0,0,0-.63,1.37,19.41,19.41,0,0,1,4.44,8.22c.38,1.54,2.79,2,4,.9a19,19,0,0,0,1.85-2.16c.62-.76,1.33-1.41,2.35-.88a82.68,82.68,0,0,1,7.46,4.22,16.63,16.63,0,0,0,5.09,2.49c3.07.81,6.06,1.88,9.13,2.74a31.36,31.36,0,0,1,5.32,2c3.57,1.76,6.59,3.76,7.54,8,.35,1.5,1.38,2.84,2.05,4.27.54,1.14,1,2.31,1.54,3.47s.32,2.15-.71,2.29c-3.32.45-4.77,2.85-6.15,5.42-.94,1.76-.16,3.24,1.64,3.4,2.91.26,5.64-.52,8.44-1.13,3.28-.73,6.35-.22,8.45,2.87a23.74,23.74,0,0,0,1.78,2.25,7.12,7.12,0,0,0,4.66,2.36l1.88-41.66.5-12.13A32.93,32.93,0,0,0,7665.28,7456.75ZM7617.91,7484a1.36,1.36,0,0,0-.76.32,10,10,0,0,0-2.4,6.71c0,.52.53,1.06.91,1.51.14.15.58.05.89.05,2.73-1.47,3.74-4.23,2.79-7.76A1.07,1.07,0,0,0,7617.91,7484Zm-24.32-43.67a2.05,2.05,0,0,0-.16-.89c-1.23-1.66-3-1.71-4.55-.12-.18.19-.39.62-.3.79.23.44.62,1.08,1,1.09a17.93,17.93,0,0,0,3.49-.28C7593.24,7440.88,7593.41,7440.53,7593.59,7440.33ZM7567,7450.89a2.09,2.09,0,0,0-2.33-1.09c-.9.17-1.73,1.52-1.31,2.13a2.17,2.17,0,0,0,2.46.88,4.85,4.85,0,0,0,1.4-1A3.42,3.42,0,0,0,7567,7450.89Zm25.65,47.68a5.53,5.53,0,0,0-1.12,2.46c-.07.42.56,1,1,1.42.13.13.61,0,.89-.1a2.71,2.71,0,0,0,1.82-3c-.28-.51-.48-1.36-.9-1.48A1.92,1.92,0,0,0,7592.67,7498.57Zm-67.22,8.37a1,1,0,0,0-.34-1.61c-.26-.15-.56-.46-.77-.41-2.71.74-5.23,2.23-8.25,1.62-2.79-.53-5.62-.88-8.44-1.31-.32,0-.62-.15-.94-.17a7.41,7.41,0,0,0-6.05,2.19,2.32,2.32,0,0,0-.55,1.7,1.86,1.86,0,0,0,1,1.35c2.47.56,5,1,7.4,1.4,4.49-.63,8.89-1.2,13.28-1.91a6.38,6.38,0,0,0,2.47-1.39A4.75,4.75,0,0,0,7525.45,7506.94ZM7348.75,7463c-.23,0-.5.22-.76.34.22.19.4.5.63.53s.51-.21.76-.34C7349.16,7463.34,7349,7463,7348.75,7463Zm45.72-.2a.77.77,0,0,0-.19-.05l-2.26-2.13c0-.24-.08-.45-.13-.68l-.69-.89c.17-.05.33-.12.49-.16.08.34.14.69.2,1,.12.16.24.32.37.47l2.23,2.12c0,.09,0,.18,0,.27.87.17,1.73.4,2.6.54a2.29,2.29,0,0,0,.93-.11c.7-.13,1.49-1.68,1.1-2.31-1.83-2.9-3.67-5.81-5.61-8.64a2.08,2.08,0,0,0-1.72-.43,4.42,4.42,0,0,0-3.23,1.79c-.36.51-.61,1.09-1,1.6a1.81,1.81,0,0,1-3.09-.3c-.77-1.73-1.43-3.5-2.11-5.27a4,4,0,0,0-2.63-2.51c-1.21-.37-2.49-.56-3.64-1-.49-.2-1.13-1.26-1-1.4,1.26-1.64-.75-3.58.5-5.15a2,2,0,0,0,.2-2.6c-1.58-2.3-4.54-3.47-5.22-6.59-.16-.72-1.27-1.38-2.08-1.82-1.66-.89-3.43-1.6-5.13-2.43-.83-.42-2-.79-2.3-1.49-1-2.35-3.45-2.67-5-4.13a17.57,17.57,0,0,0-6.48-3.91,6.32,6.32,0,0,1-3.56-3,11.86,11.86,0,0,0-4.78-4.57A35.47,35.47,0,0,1,7328,7397a6.21,6.21,0,0,0-4.84-2.75c-4.13-.36-8.17-.88-12-2.61-.71-.34-1.85.09-2.72.38s-1.38,2.13-.88,3.43a16.74,16.74,0,0,0,2.14,4.19,28.68,28.68,0,0,0,8.68,7.35,13.31,13.31,0,0,1,4.92,4.35c1.09,1.56,2.69,2.81,3.56,4.46a29.37,29.37,0,0,0,7.31,8.64,9.11,9.11,0,0,1,2.05,3.12c.9,2,1.49,4.2,2.4,6.25a9,9,0,0,0,2.15,3.06,25.23,25.23,0,0,1,7.46,11.9c.64,2.12,1.67,4.12,2.35,6.24a17.86,17.86,0,0,0,3.4,5.64c2.59,3.26,6.08,5.64,8.61,8.81a53,53,0,0,0,9,8.46c2.49,2,5.12,3.76,7.18,6.23.89,1.06,2.13,1.07,3.45,1.06,3.32-.07,6.65-.78,10,0,.19-3.61.57-7.22.45-10.82C7392.49,7470.37,7394.26,7466.72,7394.47,7462.8Zm-2.28,22.43c0,.11,0,.23,0,.33s.18,0,.27,0,0-.21,0-.31A2.93,2.93,0,0,0,7392.19,7485.23Zm-54.81-37.82a2.71,2.71,0,0,0-1.66.24c-.75.26-.85.8-.53,1.53.63,1.43,1.36,2.72,2.88,3.23.39,0,.84.11,1,0,.37-.43.87-1,.86-1.47A3.74,3.74,0,0,0,7337.38,7447.41Zm-11.17-20.6a.92.92,0,0,0-.88,0c-.43.32-1.07.77-1.07,1.18a4.72,4.72,0,0,0,2.78,4.3c.25.15.7.26.86.13a9.41,9.41,0,0,0,1.06-1.26C7329.05,7429.08,7327.72,7427.88,7326.21,7426.81Zm-13.71-11,.64,0-.27-.64Zm152.58,88.34c-3.52,0-6.85-.53-9.56-3.09-.39-.37-1.21-.29-1.85-.33-1.27-.1-2.54-.12-3.8-.21a2.66,2.66,0,0,1-2.3-1.27c-.37-.64.37-1.37,1.8-1.67.62-.14,1.27-.15,1.88-.28.92-.19,2.14-.41,2-1.43-.06-.49-1.53-1.07-2.38-1.14a43.22,43.22,0,0,1-11.23-1.83,46.19,46.19,0,0,1-5.33-2c-2.67-1.34-4.77-1.12-6.53,1.52a3.86,3.86,0,0,1-3.42,1.35c-1.58,0-3.14-.35-4.73-.43-2.91-.15-5.3-.71-7.48-3.25-2.29-2.69-6.19-3.39-9.62-3.42s-6.73-1-10.12-1c-.25,2.5-1.66,4.51-2.86,6.63a1.67,1.67,0,0,0,.84,2.33c2.1.66,4.31,1,5.62,3.18a3.94,3.94,0,0,0,3.29,1.59,16.9,16.9,0,0,1,7.31,1.84,8.84,8.84,0,0,0,5.49.73,20,20,0,0,1,12,1.92c3.77,2.09,7.8,2.45,11.92,2.72a59.27,59.27,0,0,0,6.64.32,19.55,19.55,0,0,1,11,2.36,3.34,3.34,0,0,0,4.3-.72,2.71,2.71,0,0,1,2.66-.39,26.06,26.06,0,0,0,3.71.6c1.05.09,2.42-1.42,2.43-2.51C7466.77,7505.4,7465.84,7504.13,7465.08,7504.11Zm40.58,13.43c-2.21-2.65-5.23-3.44-9.31-3.44a7.39,7.39,0,0,0-2,.47,2.17,2.17,0,0,0-.91,1.53c-.05.54.24,1.54.57,1.63,3.11.88,5.66,2.85,8.49,4.23a5.52,5.52,0,0,0,2.78.07,2.14,2.14,0,0,0,1.38-2.9A13.86,13.86,0,0,0,7505.66,7517.54Zm18.36,9c.21.65.82.95,1.35.55a2.78,2.78,0,0,0,.62-1.25,7.69,7.69,0,0,0-1.44.1C7524.33,7526,7524,7526.37,7524,7526.51Zm-50.08-57.81c0-.31.18-.68.07-.94-.8-2.15-1-4.1.35-6.27a7.32,7.32,0,0,0,1-4.55,8.16,8.16,0,0,1,2.22-7c2.71-2.89,4-6.45,5.44-9.93.75-1.76,1.28-3.59,2-5.37a3.66,3.66,0,0,1,2.93-2.15c.94-.18,1.92-.08,2.85-.21a11.61,11.61,0,0,0,1.76-.64c.78-.24,1-1.7.66-2.45-1.24-2.38-3.85-3.28-5.46-5.23a3,3,0,0,1-.6-3.48,3.09,3.09,0,0,0-.4-3.57c-3.23-3.32-2.55-6.88-.92-10.58a5.72,5.72,0,0,1,1.79-2.18l-7-1.71-6.59-.31-1.42-.31-1.41,1.4-.94,2.36-1.26,5.5-2,4.56-2.21,4.71-2.66,4.23-.32,1.42-5.33,1.26-3,.79-3.3-1.42-3.61.47s-4.08,1.57-4.71,1.88-5.18.31-5.18.31l-3.15.49-1.41.77-2.52.32-2.19-3-3.86-4.95c-1.64-.37-2.86.12-4.06,1.74a12.4,12.4,0,0,0-1.57,2.38c-1.13,2.64-2.34,5.51-1.26,8.26a79.13,79.13,0,0,1,2.85,10.05c.54,2.11,1.31,4.29,4,4.91a1.73,1.73,0,0,1,1,1.38c-.16,2.64,1.23,4.92,1.6,7.43a4.35,4.35,0,0,0,4.43,4.1,27.69,27.69,0,0,0,4.72.22,3.65,3.65,0,0,1,3.81,2.2,2.83,2.83,0,0,0,3.93,1.47c1.79-.64,3.63-1.14,5.47-1.64a3.51,3.51,0,0,1,1.86-.24c2.67.92,5.36,1.85,7.93,3,.74.34,1,1.57,1.66,2.28.83,1,1.86,1.76,3.29,1.3,1.81-.58,3.6-1.31,5.46-1.71a7.57,7.57,0,0,1,2.64.49A2.28,2.28,0,0,0,7473.94,7468.7Zm21,39.7a9.68,9.68,0,0,0-9.24-3.67c-.47.06-.91.71-1.28,1.17a12.69,12.69,0,0,0-.88,1.47c-3.24-1.92-6.85.28-10.22-.95-1.19-.43-2.4.36-3.1,1.6-.51.9-.31,2.17.47,2.41,1.79.56,3.58,1.17,5.39,1.67,1.21.34,2.46.52,3.52.75a104.2,104.2,0,0,0,15-2.94C7495.39,7509.72,7495.48,7509.06,7495,7508.4Z" transform="translate(-6738.36 -6905.13)"/><path class="cls-1" d="M7557.34,7402.84c-.06.18.26.49.39.74.16-.22.32-.46.49-.68C7558,7401.91,7557.64,7401.89,7557.34,7402.84Zm-4.15-37.31a7.83,7.83,0,0,0-2.32-5c-1.63-1.51-3.26-3.05-3.8-5.35-.19-.81-.6-1.15-1-.85-.21.17-.27.56-.35.85-.53,1.84-.69,3.9-1.66,5.44s-2.79,2.48-4.17,3.75c-.71.63-1.23,1.44-1.92,2.08s-1.49,1.17-2.2,1.8c-1.07.95-1.61.08-2.28-.58-2.19-2.21-3.47-3.24-6.35-.18a17,17,0,0,1-5.4,3.66c-2.21,1.05-3.07,3.08-3.16,5.84a1.14,1.14,0,0,0,0,.57c.15.59.23,1.4.63,1.69s1.2-.09,1.64-.42c1-.76,1.83-1.69,2.74-2.54a20.91,20.91,0,0,0,8.36-.71c.79-.27,2.85,1.41,2.87,2.19,0,1.26-.13,2.52-.07,3.77.22,4.33,2.54,7.06,6.61,8.32a18.72,18.72,0,0,0,4.64,1,3.74,3.74,0,0,0,2.37-1.26,3.82,3.82,0,0,0,.9-3.53c-.35-1.81-1.94-3.4-1.1-5.41a1.8,1.8,0,0,1,1.46-.88c.49.09,1,.74,1.34,1.21,1.4,1.75,1.29,1.66,2.62.52a5.76,5.76,0,0,0,2-6.78A63.08,63.08,0,0,1,7553.19,7365.53Zm-74.66,6.46.1-.54-.68.19Zm36.89-46.73c.23.24.46.5.69.77.14-.37.27-.73.4-1.09Zm1.23-.58s0,0,0,0-.07.2-.11.29.2-.07.3-.09Zm5.92.07-.42-.27.67,0-.25.23h0c.74.57,2,1.05,2.14,1.74.46,2.26,1.37,3.88,3.74,4.56,1,.28.88,1.27-.13,2.12-2.57,2.23-2.47,3.13.52,4.48a10.91,10.91,0,0,0,2.66,1,2.26,2.26,0,0,0,1.54-.65c-.33-2.24.6-4.28.77-6.42a3.51,3.51,0,0,0-1.08-2.49c-1.19-1.09-2.6-2.07-2.69-3.76-.14-3.09-2-4.36-4.6-5.31-1.14-.41-2-1.54-3.08-2.22a4.15,4.15,0,0,0-3.66-.45c-.6.2-1.19.44-1.8.63a2.14,2.14,0,0,1-.92.24,8,8,0,0,1-1.75-.53c-.71-.34-.68-1.26,0-2.47,1.72-2.87,1.71-2.86-1.21-3.33-1.15-.18-1.78-.79-1.83-1.67a7.71,7.71,0,0,1,1.35-5.43c.57-.76,1.43-1.32,1.94-2.1,2.38-3.67,3.57-7.65,1.32-11.7a10.38,10.38,0,0,1-1.31-7.27c.17-.95-.68-1.63-2-1.53a13.43,13.43,0,0,1-6.53-.79c-3.2-1.3-4.95,1-5.9,3.26a13,13,0,0,0-.85,3.68c-.42,3.46-.84,7-1,10.44a4.45,4.45,0,0,1-1.63,3.22,2.15,2.15,0,0,0-.65,1.67,61.81,61.81,0,0,0,2.61,9.15,6.92,6.92,0,0,0,4.56,4.46c0-.05,0-.07,0-.1.07-.61.26-.67.58-.2l-.48.32-.09,0c-.14,2.89.67,5.17,3.78,6.17a6.79,6.79,0,0,1,2,1.29l.13.15.11,0-.28-.23,3.81-2a2,2,0,0,1,2.39.3,16.58,16.58,0,0,1,1.6,1.74C7518.64,7325.7,7520.64,7326.59,7522.57,7324.75Zm-18,.32c-.44.28-1,1.08-.84,1.45a26.22,26.22,0,0,0,4.05,8.46,2.46,2.46,0,0,0,4-.33,5.5,5.5,0,0,0,0-6.24,42.22,42.22,0,0,0-2.73-3.54C7507.52,7324.52,7506,7324.17,7504.56,7325.07Zm14.19,57.54c-.69.31-1,.89-.61,1.46.29.4.94.54,1.43.8.22-.54.66-1.1.59-1.59C7520.07,7382.55,7519.43,7382.36,7518.75,7382.61Zm-16,12.25c0,.11.52.24.79.21.1,0,.18-.4.27-.62C7503.08,7394,7502.69,7394.11,7502.76,7394.86Zm8.66-6.43c-.25,0-.52.2-.78.31.22.17.41.48.64.49s.51-.19.76-.3C7511.84,7388.75,7511.64,7388.47,7511.42,7388.43Zm22.12-64.41c.49,0,1-.51,1.43-.79.28-.68.12-1.33-.56-1.51a1.93,1.93,0,0,0-1.51.38C7532.24,7322.74,7532.7,7324.08,7533.54,7324Zm-15.4,11.17a6.81,6.81,0,0,0-.75-1.28c-.36.37-.71.75-1.07,1.16a10.9,10.9,0,0,0,1.33.74C7517.73,7335.84,7518.19,7335.33,7518.14,7335.19Zm-19.89,2.24a2.1,2.1,0,0,0,.63,1.56c.86.47,2.77-.73,3-2a9.22,9.22,0,0,0-2-1.31C7498.88,7335.38,7498.23,7336.1,7498.25,7337.43Zm-3.84,11.26c-3.71,5.09-7.34,10.24-12,14.59a4.83,4.83,0,0,0-.92,1.63,1,1,0,0,0,.05.79,2.74,2.74,0,0,0,.73.55,2.8,2.8,0,0,0,.93-.1,19.92,19.92,0,0,0,7.7-6.87,24.12,24.12,0,0,1,7.87-7.95c1.05-.66.83-.62-.12-2.13C7497,7346.52,7495.6,7347.05,7494.41,7348.69Zm37.75,6.69-.06-.1h-.18c0,.1-.06.17-.09.27C7531.94,7355.48,7532.05,7355.44,7532.16,7355.38Zm-2-5.77v-.14c-.07.09-.1.16-.16.25v0A.77.77,0,0,0,7530.15,7349.61Zm6.07,8.05a2.51,2.51,0,0,0,1.32-3.05,2.15,2.15,0,0,0-2.43-.77c-1,.45-2,1-2.95,1.54C7533.6,7357.91,7534.55,7358.41,7536.22,7357.66Zm-13.67-8c.63-.71,1.22-1.42,1.83-2.13l-.17.31a.74.74,0,0,0,.13-.12c-.64,2.26-.38,4.7-2.07,6.81-2,2.56-1.69,3.46.82,5.19,1,.7,2.09,1.31,3.15,1.93a1.68,1.68,0,0,0,2.26-1c.69-1.71,1.59-3.37,1.42-5.32l.24.24v-.24H7530c-1.66-1.87-1.55-3.72,0-5.59-.09-2.46-2.25-2.85-3.82-3.84l.27-.29c-.09.09-.18.19-.27.27a10.33,10.33,0,0,0,0-1.84c-.07-.59-.16-1.39-.54-1.67-2.53-1.81-5.5-2.65-8.42-3.58-.15-.05-.63.32-.63.47.11,3.07.2,6.12.45,9.18.09,1.08,1.19,1.31,2.07,1.59C7520.33,7350.39,7521.53,7350.81,7522.55,7349.65Zm9.37,5.63c.49-1.33,1-2.64,1.42-4a12.37,12.37,0,0,0,.38-2.66,1.31,1.31,0,0,0-.3-.83c-.37-.45-.9-.41-1.45.08s-1.21,1.16-1.82,1.74c0,1.9,0,3.8,0,5.7C7530.74,7355.3,7531.34,7355.3,7531.92,7355.28Zm5.77-15.25.05.05a1.3,1.3,0,0,0,.18-.23c0,.12,0,.24,0,.36a7.67,7.67,0,0,1,1,.82.78.78,0,0,1,.05.78c-.49.59-1,.46-1.1-.34a5.32,5.32,0,0,1,0-1.26l-.16-.13c-.14.19-.27.34-.39.53-1.61,2.27-2,4.57-.31,7,1.08,1.55,1.95,3.25,3,4.78a2.19,2.19,0,0,0,1.65.59,2,2,0,0,0,1.56-2c-.2-.92-.64-1.8-.75-2.72-.08-.55.15-1.58.45-1.67,3.33-1,3.08-3.42,2.66-6.08a14.6,14.6,0,0,0-1.58-5.42,5.27,5.27,0,0,0-6.55-2.37,2.58,2.58,0,0,0-1.64,3C7536.43,7337.16,7537.08,7338.6,7537.69,7340Z" transform="translate(-6738.36 -6905.13)"/><path class="cls-2" d="M7043.71,7212.43l-2.51-1.67h-1l-2.1-7.95-2.51-1.05-3.77-.85-2.93-1.88-6.29-9.43,6.28-8.58-.41-1.89v-3.56l-1.47-2.72-6.91-.62v-1.48l-2.09-8.16-1.47-4.18,2.72-4-3.14-.83-1.25-4.41,1-2.08-1.26-1.89,3.56-3.56V7140l.32-4.58-.41.19-1.16-4.4.31-1.37L7016,7128l-2.31-1.25h-3.24l-3-4.61-2.3-.84-2.72.31-.42-.94-.42-2.09h-1.36l-3.46-1.06-1.67.74h-.94l-4.61-3-2.62-.73-2.62-2.31-1.57.2-1.25-.72-2.21.52-.51,1.88-2.94-.83-3,.52-3.35,2.93h-1.25l-1.67,3.78h-4l-2.56,1.23c.34,1,.67,1.92,1,2.89a1.13,1.13,0,0,1-.8,1.56c-4.08.52-8.16,1-12.24,1.38-.95.11-1.91.15-2.85.23-4.45-.49-8.95-.78-12.26-4.41a7,7,0,0,0-4.2-2,19.79,19.79,0,0,1-3.69-.85,4.2,4.2,0,0,1-2.2-1.7,27.42,27.42,0,0,1-2.14-6l-1.53.42-1.34-.79-1.17-.55-2.59-3.46,2-1.56-1.65-.87-.48-.79.8-.93-1.34-1.82-1-1h-.86a5.07,5.07,0,0,1-1.5.78,3.84,3.84,0,0,0-1.25.55l-1.5,1.5-2.27,2-1.1,1.5-1.34.86-.93-.65v.11l-2,.47-3.54-5.35,3.49,5.27-.27,1.17-2.28-1.17-2.19-.09-1.81-1-.23-1.72-3.46-1.88v-1l-.62-1.09h-.64l-.78-.71-1.1-.5-2.2,2.46-1.73.78,1.73,2.05.16,6.44,2,1.1-.95,1.88a19.24,19.24,0,0,1,.48,3c0,.94,1.41,1.25,1.88,1.25s1.89,4.87,1.89,4.87l-.17.82,3.35,5.77,5.3,4.92,7.12,2.1-2.52,1.46.22,4.61-2.73,1.67-.83,8.8,4.19,2.32,1.67,6.06,3.57-.41,5.65,4,3.35,3.15,2.51,3.76-1.68,3.56,1.05,2.52,2.3.19.84,5.24,3.35,2.1-1.68,2.25.38,2.19c.13-.54.18-1.08.36-1.6a2,2,0,0,1,1.29-1.22,28.28,28.28,0,0,1,5.58-.53,13.13,13.13,0,0,1,5.45.95c1.24.67,2,2.42,2.8,3.76,2.39,3.76,4.77,7.53,7.06,11.36a6.85,6.85,0,0,0,4.44,3.31c.92.24,1.85.5,2.78.72a9.19,9.19,0,0,1,5.65,3.27c.92,1.19,2.47,1.91,3.77,2.8,3.5,2.44,7.65,3,11.66,4a6.07,6.07,0,0,0,4.57-.59,74.3,74.3,0,0,1,6.82-3.36,4.71,4.71,0,0,1,6.43,2.39c1,2,1.84,4.07,2.69,6.13a4.65,4.65,0,0,0,4.44,3c8.9.61,17.58,2.63,26.37,4a44,44,0,0,0,5.42.49l.1-3.34.83-2.5-.83-1.26.42-1.47.62-2.72,3.14-2.09,4-1.67,2.3,1.26,1.25-1.69Z" transform="translate(-6738.36 -6905.13)"/><path class="cls-2" d="M7011.86,7244.79a5.86,5.86,0,0,0-4.63-3,51.36,51.36,0,0,1-7.54-1.13,9.66,9.66,0,0,1-4.07-2.32,13.6,13.6,0,0,1-4.41-8.27c0-.24-.06-.49-.1-.72h-1.85l-6.48,20.52,1.88,5.44-1.25,17.81-22.36,7-.89,3.89,7.54,8.8-.42,4.19,6.05,4.88a83,83,0,0,1,8.16-2c2.85-.5,4.78-1.56,5.46-4.44a3.67,3.67,0,0,1,3.1-3.17,8,8,0,0,0,7-5.59,5.36,5.36,0,0,1,3.56-3,19.44,19.44,0,0,0,3.63-1.14,3.29,3.29,0,0,0,1.44-2.18c.23-1.89,0-3.82.17-5.72a5.26,5.26,0,0,1,2.29-4c4.75-3,7.53-7.61,10-12.4,1.64-3.13,1.26-4.75-1.55-7.51A29.91,29.91,0,0,1,7011.86,7244.79Z" transform="translate(-6738.36 -6905.13)"/><path class="cls-2" d="M6973.33,7301.91l-6.05-4.88.42-4.19-7.54-8.8.89-3.89-29.89,8.92-14.45,19.38-.32-7.12-13.92-6.09-4.72-.1-2.61-2-1.88.84-1.16,3.56,1.36,2.72-2.09,1.46-.74,1.47-3.53-.47a11.44,11.44,0,0,1,.88,7.23,5.18,5.18,0,0,0,.15,3.7c2.17,4.31,2.68,9.14,4.21,13.63a29.65,29.65,0,0,0,2.22,5.24,4.33,4.33,0,0,0,3.94,2.24c1.58,0,3.17-.21,4.74-.35,2.31-.19,4.46-.84,5.91-2.71,2-2.58,4.58-3.19,7.63-2.82a14.11,14.11,0,0,0,10-2.4,14.19,14.19,0,0,1,6.2-2.22,8,8,0,0,0,5-2.56,11.55,11.55,0,0,1,5.67-3.33c3.33-1.09,6.72-2,10-3.25,2.66-1,5.19-2.38,7.78-3.58a3.87,3.87,0,0,0,2.37-2.8c.6-3.25,2.75-4.94,5.7-5.77,1.27-.35,2.55-.72,3.82-1.09A0,0,0,0,1,6973.33,7301.91Z" transform="translate(-6738.36 -6905.13)"/><path class="cls-2" d="M6981.49,7299.89c-1.82.34-3.63.78-5.42,1.28C6977.86,7300.68,6979.67,7300.23,6981.49,7299.89Z" transform="translate(-6738.36 -6905.13)"/><path class="cls-2" d="M6982.81,7249.81l6.45-20.42h1.85c0,.23.07.48.1.72-.19-1.54-.42-3.07-.63-4.62h-1.73l-.39-2.83-1.45-.53c-3.41,3.67-7.09,7.14-9.78,11.36-2.31,3.62-5.31,5.32-9.46,5a19.12,19.12,0,0,0-9.35,1.19c-1.25.55-2.49-.22-3.41-1.18a10,10,0,0,1-1.51-2l-.22,3.78,1.88,2.36,1.73,6,23.17,3.7Z" transform="translate(-6738.36 -6905.13)"/><path class="cls-2" d="M6991.21,7230.11a12.09,12.09,0,0,0,.59,2.51A12.09,12.09,0,0,1,6991.21,7230.11Z" transform="translate(-6738.36 -6905.13)"/><path class="cls-2" d="M6991.86,7232.75a12.14,12.14,0,0,0,1,2.16A13.26,13.26,0,0,1,6991.86,7232.75Z" transform="translate(-6738.36 -6905.13)"/><path class="cls-2" d="M6987,7223.13l1.45.53.39,2.83h1.73c-.17-1.29-.34-2.58-.53-3.87,0-.27-.34-.71-.49-.71-.61.05-1.44,0-1.76.39s-.68.71-1,1.07A1.75,1.75,0,0,0,6987,7223.13Z" transform="translate(-6738.36 -6905.13)"/><path class="cls-2" d="M6952.81,7234.41c-.27-3.16-.52-6.35-.88-9.49a3.42,3.42,0,0,0-.76-1.69,2.83,2.83,0,0,0-1.5-1.07,2,2,0,0,0-1.59.74,29.8,29.8,0,0,0-1.72,3.38,1.92,1.92,0,0,1-.8.84l2.06,6.3,2.59,1.27,2.68.09C6952.88,7234.66,6952.82,7234.54,6952.81,7234.41Z" transform="translate(-6738.36 -6905.13)"/><path class="cls-2" d="M6986.83,7222.33c.05-.07.11-.1.15-.17.27-.29.55-.56.82-.86C6987.49,7221.65,6987.15,7222,6986.83,7222.33Zm-4,27.49-2.75,2.61-23.17-3.7-1.73-6-1.88-2.36.22-3.78h0a5.6,5.6,0,0,1-.61-1.78l-2.68-.09-2.59-1.27-2.06-6.3c-.62.34-1.36.08-2.1-.88a10.42,10.42,0,0,1-2.42-5.12c-.43-3.3-2.19-5.94-4.38-8.32-1.51-1.65-3.12-3.18-4.73-4.72-.67-.65-1.69-1.07-2.12-1.84-1.4-2.38-2.69-4.84-4-7.29l-5.67,2.77.21-2.31-7.12-2.93-15.91.62-37.49-25.75-7.32-1.26L6850,7173l-11.94,3.77,8.59,10.05-3.13,3.77v2.1l-6.5.83-5.65,5.45-10.68-1.9-1.12,10.12a3,3,0,0,1,1.72-.46c1.75.06,2.9,1.19,3.92,2.43.81,1,1.44,2.1,2.25,3.08,3.65,4.43,6.05,9.71,9.57,14.21a20.24,20.24,0,0,1,4.16,8.48,5.18,5.18,0,0,0,3.67,4.05,12,12,0,0,1,7.86,7.74,24.74,24.74,0,0,0,1.66,3.44,11.53,11.53,0,0,1,1.5,6.42,25,25,0,0,0,.1,2.87c.27,5.17,2.9,9,6.89,12,1.51,1.16,3.3,2,4.8,3.1a14.5,14.5,0,0,1,5.56,7.57,23.66,23.66,0,0,0,5.86,9.72,63,63,0,0,1,6.08,7.31,21.65,21.65,0,0,1,1.94,3.6.21.21,0,0,0,0-.06l3.53.47.74-1.47,2.09-1.46-1.36-2.72,1.16-3.56,1.88-.84,2.61,2,4.72.1,13.92,6.09.32,7.12,14.45-19.38,29.89-8.92,22.36-7,1.25-17.81-1.88-5.44Zm-9.48,52.09a0,0,0,0,0,0,0c-1.27.37-2.55.74-3.82,1.09C6970.79,7302.64,6972.06,7302.27,6973.33,7301.91Z" transform="translate(-6738.36 -6905.13)"/><path class="cls-2" d="M6925.79,7198.9c-.47-.9-1-1.8-1.48-2.71a5.34,5.34,0,0,1-.25-2.77,17.23,17.23,0,0,1,.82-3.7,1.84,1.84,0,0,1,.41-.6l-2-.46-1.73.39-2.74-.94-3.7,1.65-3.14,6.75,1.28,0,7.12,2.93-.21,2.31Z" transform="translate(-6738.36 -6905.13)"/><polygon class="cls-1" points="180.45 282.98 183.19 283.92 184.92 283.53 185.96 283.77 187.46 281.75 184.12 279.65 183.27 274.41 180.97 274.21 179.93 271.69 181.6 268.14 179.09 264.38 175.74 261.23 170.09 257.25 166.53 257.66 164.85 251.6 160.66 249.29 161.49 240.49 164.22 238.82 164 234.21 166.53 232.75 159.4 230.65 154.1 225.73 150.75 219.96 150.61 220.7 148.09 221.02 147.3 218.51 144.48 219.3 141.65 218.2 136.31 219.3 134.11 220.7 133.12 222.7 132.28 222.59 130.72 224.16 127.46 224.79 126 227.83 126 229.71 127.77 233.58 127.46 235.47 126.42 238.4 126.73 239.66 126.73 241.66 124.74 244.48 110.66 254.63 114.62 265.04 114.17 264.96 121.5 266.22 158.98 291.97 174.89 291.35 173.61 291.38 176.75 284.63 180.45 282.98"/></g><g id="India"><path class="cls-3" d="M7308,7200.76l0-1.72h-.59l-2.72-1.26h-2.1l-.63-1.68.83-2.09-1.46-2.73h-1.46l-1-.84.63-2.73-2.09-1s-3.57,1-4.2,1.24-.21,1.05-.21,1.05l-1,1.05-1.89-.84-3.14.21-1.47-1.05-2.3,1.05-1.67,4-4.82,1.26-1.25,2.31-2.52,1.67h-1.25l-1.26,2.3-4.4,1.48-2.09-1.48-4.19-.41-3.56-.21-3.77-2.31-3.35,1.47-3.56,2.31-2.51,3.77-.12-.19-.72-1.07-1.47-2.94h-2.3l-1.56.71-.74.35-3.35.41-2.51.21-2.73-2.3-1.89-.63-1.25-2.3-4.4-.63-2.1,1.26-2.08,1.46-3.77-2.93-.84-3.35-3.77.42-2.1-2.73-2.51-1.67h-1.88l-1.67,1.88-2.73-3.56-2.51-1.05-2.93-2.72h-2.1l-3.14-2.08-3.35-.22-2.3,1.68-4.77-2.29-.46-.23-2.94-2.94-4-2.92H7166l-1.68,1.46-3.35-5.44-1.25-2.93.2-3.56-1.68-2.61-.62-.94,2.1-2.1,1,1.26,1.25-1.89-2.09-5.24-2.51-3.56-.42-4.6-2.73-2.52-2.72-2.72-1.67-5.23-4.81-1.26-1-2.09-7.75-.85-2.3-2.09-.63-2.93-5.65-7.12-1.47-1.67-1.67.63-2.1.41-1,.42-1.68-1.46h-1.46l1.25-1.26-1.68-1.47-5,1.05-3.14-.63-3.14,2.72-2.3,2.1-4,2.92-2.09,1.27-3.35-2.1-1.26-3.34-.62-4.82-1.48-2.09-1-3.78-2.93-1.47-2.3,2.73-.42,1.89.62,2.09-1.46,2.51-3.35-.42-1.88,1.47.2,3.14H7076l-1.26-2.1-3.56,2.52-3.56,1.26-1.87-2.29,0,.2-2-.84-2.2,1.15-1.15-1.46-1.89-.95-2.35.19.05.65-.83-.84-2.42.52-.41-.83-2.09.41-3.16,1.57-3.75,1.69v.72l.62,1,.21,1.26-2,1.78-.31,1.78-.53,2.2-1.46.73-1.36,2.09-1.79-.31-3.35,2.3-.94,2.41-.95,1.26-2.19.73-.94.53-1.26-1.79-2.09-1.25-1.36.1-.73,1.05-1.57-.1-1.36-1.05-1.16-.22-.52.24-.32,4.58v1.68l-3.56,3.56,1.26,1.89-1,2.08,1.25,4.41,3.14.83-2.72,4,1.47,4.18,2.09,8.16v1.48l6.91.62,1.47,2.72v3.56l.41,1.89-6.28,8.58,6.29,9.43,2.93,1.88,3.77.85,2.51,1.05,2.1,7.95h1l2.51,1.67.21,2.3-1.25,1.69-2.3-1.26-4,1.67-3.14,2.09-.62,2.72-.42,1.47.83,1.26-.83,2.5-.21,7.34,51.09,16.55,2.93-10.27-.85,3a11.59,11.59,0,0,1,1.62,1.79c2.38,3.34,5.86,4.75,9.88,5l2.54.1.14-.18.39-.23-.19.43-.34,0c-1.47,2.19-3.28,3.49-6.15,2.35a1.66,1.66,0,0,0-1.51.65,1.74,1.74,0,0,0,.13,1.67c2.79,3,5.53,6,8.51,8.72,5.42,5,7.84,5.06,14.14,1,2.42-1.58,4.07-3.6,4.33-6.54l-.13-.06-.08-.5.26.28a2.74,2.74,0,0,1-.05.28c.27.12.6.24.66.45,1.45,4.15,3.1,8.25,2.8,12.83a13.55,13.55,0,0,0,.45,5.66c1.71,4.51,2.34,9.23,3.47,13.85s4,8.71,4.09,13.65a6.65,6.65,0,0,0,1.11,2.62,83.42,83.42,0,0,0,4.72,8.3c2.27,3.18,3.55,6.74,4.85,10.33a55,55,0,0,1,1.84,5.43,20.55,20.55,0,0,0,5.44,9.9,16.34,16.34,0,0,1,3.75,5.47c1.71,4.43,4.29,8.54,4.84,13.44a17.63,17.63,0,0,0,6.22,10.43,5.26,5.26,0,0,0,7.6-1,19.78,19.78,0,0,0,1.37-2.52,6.11,6.11,0,0,1,3.37-3.24c2.06-.7,2.78-2.26,3.44-4.16a9.59,9.59,0,0,1,4.74-5.73c1.57-.81,2-2.41,1.82-4.1s-.47-3.14-.76-4.7a8.77,8.77,0,0,1,.52-5.6c.55-1.15,1-2.36,1.48-3.52a9.84,9.84,0,0,0,.14-8.32,13.39,13.39,0,0,1-.83-4.65c-.12-3.49-.11-7,0-10.48a3.92,3.92,0,0,1,3.42-4c.91-.18,2.16-.38,2.55-1,1.64-2.66,4.22-3.61,6.95-4.55a4,4,0,0,0,2.36-2.83c.45-1.54.71-3.28,2.22-4.09,4-2.15,6.48-6.07,10.05-8.73a15.46,15.46,0,0,0,3.74-4.27c1.18-1.88,2.75-3.5,4.07-5.29a8.67,8.67,0,0,1,3.81-2.64c5.25-2.35,8.86-6,9-12.27.05-1.73,1.3-2.79,2.75-3.63a13.51,13.51,0,0,1,7.4-1.45,29.92,29.92,0,0,0,6.17-.43,23.88,23.88,0,0,0,10.08-4.05c2.08-1.47,5-1.16,6.82-3.19a2.5,2.5,0,0,1,1.5.91c.72,1.74,1.24,3.57,1.81,5.39a27.46,27.46,0,0,0,3.24,7,2.2,2.2,0,0,0,.15.26v0a24.23,24.23,0,0,0,1.8,2.37c0-1.16,0-2.91,0-2.91l.32-2,1.56-1.73.78.08.56-2.11.24-3.6.94.22.52-.32.84-2.83v-1.36l-.1-4.09,1.25-.09.63-4.82-1.26-3.35,1.68-.1,2.93.41,2.1-3.13,2.29-8-2-.41v-1.36l2.51-4,.73-2.3-.42-1.26-.21-1.79,2.93-4.28,2.36-1.11,2-3.92,5-2.21,2.19,1.11L7306,7202Zm-200.46-78.06.38,1.41-.39-1.41Z" transform="translate(-6738.36 -6905.13)"/><polygon class="cls-3" points="317.76 211.58 317.76 211.58 317.5 208.25 317.76 211.58"/><path class="cls-3" d="M7189.31,7358.64a5.53,5.53,0,0,0-2.52-1.06c-.73-.18-1.32.26-1.25.87.07.9.84,2.06.51,2.61-2.32,3.69-1.6,7.95-2.44,11a31.68,31.68,0,0,0,2.7,14.68,5.35,5.35,0,0,0,5.4,3,10.26,10.26,0,0,0,8.82-13.8A48.55,48.55,0,0,0,7189.31,7358.64Z" transform="translate(-6738.36 -6905.13)"/><path class="cls-3" d="M7283.52,7350.64c0,.09.4.43.62.45s.64-.34.61-.43a8.38,8.38,0,0,0-.57-1.31A10.48,10.48,0,0,0,7283.52,7350.64Z" transform="translate(-6738.36 -6905.13)"/><path class="cls-3" d="M7295.76,7379.06a.85.85,0,0,0-.64,1.27c.09.22.35.39.54.58l.66-1.33C7296.13,7379.41,7295.89,7379,7295.76,7379.06Z" transform="translate(-6738.36 -6905.13)"/><path class="cls-3" d="M7283.9,7340.06c-.66.71-.35,2.25.39,2.06.23-.05.57-.37.57-.56a6,6,0,0,0-.32-1.59A1,1,0,0,0,7283.9,7340.06Z" transform="translate(-6738.36 -6905.13)"/><path class="cls-3" d="M7286.38,7328.52c-.43-.3-.86,0-1.06.76a16.58,16.58,0,0,0-.23,2.1,5.6,5.6,0,0,0,0,1.57,5.7,5.7,0,0,0,1,1.45c.3-.49.85-1,.89-1.48a25.1,25.1,0,0,0-.09-3.68A1.11,1.11,0,0,0,7286.38,7328.52Z" transform="translate(-6738.36 -6905.13)"/></g></svg>